<svg width="90" height="26" viewBox="0 0 90 26" fill="none" xmlns="http://www.w3.org/2000/svg">
<path d="M0.916748 7.5L2.29175 8.875L0.916748 10.25L2.29175 11.625L0.916748 13L2.29175 14.375L0.916748 15.75H13.7501C13.7501 16.4793 14.0398 17.1788 14.5555 17.6945C15.0713 18.2103 15.7707 18.5 16.5001 18.5C17.2294 18.5 17.9289 18.2103 18.4446 17.6945C18.9604 17.1788 19.2501 16.4793 19.2501 15.75H21.0834V13C21.0834 11.9825 20.2676 11.1667 19.2501 11.1667H17.4167L14.6667 7.5H0.916748ZM4.23508 8.875H9.62508V11.1667H3.77675L2.86008 10.25L4.23508 8.875ZM11.0001 8.875H14.2084L16.0051 11.1667H11.0001V8.875ZM16.5001 14.375C16.8648 14.375 17.2145 14.5199 17.4724 14.7777C17.7302 15.0356 17.8751 15.3853 17.8751 15.75C17.8751 16.1147 17.7302 16.4644 17.4724 16.7223C17.2145 16.9801 16.8648 17.125 16.5001 17.125C16.1354 17.125 15.7857 16.9801 15.5278 16.7223C15.2699 16.4644 15.1251 16.1147 15.1251 15.75C15.1251 15.3853 15.2699 15.0356 15.5278 14.7777C15.7857 14.5199 16.1354 14.375 16.5001 14.375Z" fill="#009E95"/>
<path d="M44.0996 13.5684V15.3613H37.8418V20.5996H35.627V15.3613H29.457V13.5684H44.0996ZM42.3418 5.39453V11.8457H31.1797V5.39453H42.3418ZM33.3945 7.16992V10.0879H40.1094V7.16992H33.3945ZM59.1338 16.9961V18.8418H44.4913V16.9961H48.2354V14.5527H46.1788V9.17383H55.2315V7.45117H46.1612V5.6582H57.4463V10.9668H48.4288V12.7422H57.8155V14.5527H55.5479V16.9961H59.1338ZM50.4151 16.9961H53.3506V14.5527H50.4151V16.9961ZM62.0743 6.04492V9.64844H64.254V6.04492H66.3282V16.8203H59.9649V6.04492H62.0743ZM62.0743 15.0273H64.254V11.4062H62.0743V15.0273ZM73.377 4.62109V20.6172H71.2325V12.5488H69.7911V19.8789H67.6641V4.84961H69.7911V10.7207H71.2325V4.62109H73.377ZM82.9093 10.2812V12.25H89.1144V14.043H74.5245V12.25H80.6945V10.2812H82.9093ZM82.9445 5.41211C82.9445 7.27539 84.7374 9.05078 88.3409 9.49023L87.4796 11.2305C84.7814 10.8262 82.795 9.69238 81.7843 8.08398C80.756 9.69238 78.7696 10.835 76.0714 11.2305L75.2804 9.49023C78.8136 9.05078 80.6593 7.22266 80.6593 5.41211V4.88477H82.9445V5.41211ZM81.8019 14.9219C85.2823 14.9219 87.3566 15.959 87.3741 17.7871C87.3566 19.6152 85.2823 20.6172 81.8019 20.6172C78.2863 20.6172 76.1945 19.6152 76.1945 17.7871C76.1945 15.959 78.2863 14.9219 81.8019 14.9219ZM81.8019 16.627C79.5695 16.627 78.462 16.9961 78.4796 17.7871C78.462 18.5781 79.5695 18.9473 81.8019 18.9473C83.9816 18.9473 85.1066 18.5781 85.1241 17.7871C85.1066 16.9961 83.9816 16.627 81.8019 16.627Z" fill="#009E95"/>
</svg>
