<svg width="12" height="13" viewBox="0 0 12 13" fill="none" xmlns="http://www.w3.org/2000/svg">
<path d="M10.5 2.99995L1.49996 2.99995C1.40884 3.00023 1.31952 3.02536 1.24162 3.07264C1.16372 3.11991 1.10019 3.18753 1.05786 3.26822C1.01553 3.34892 0.996015 3.43963 1.00141 3.53059C1.0068 3.62155 1.0369 3.70932 1.08846 3.78445L5.58846 10.2844C5.77496 10.5539 6.22396 10.5539 6.41096 10.2844L10.911 3.78445C10.963 3.70948 10.9936 3.62166 10.9993 3.53055C11.005 3.43944 10.9856 3.34851 10.9432 3.26764C10.9008 3.18678 10.8371 3.11907 10.759 3.07187C10.6808 3.02468 10.5912 2.9998 10.5 2.99995Z" fill="#4A4949"/>
</svg>
