<svg width="34" height="35" viewBox="0 0 34 35" fill="none" xmlns="http://www.w3.org/2000/svg">
<path d="M25.5028 30.9583C24.5205 30.9583 23.6842 30.6136 22.9938 29.9241C22.3034 29.2366 21.9583 28.4007 21.9583 27.4166C21.9583 27.2277 21.9743 27.0327 22.0064 26.8315C22.0395 26.6294 22.0886 26.4391 22.1538 26.2606L11.1859 19.7992C10.8393 20.1902 10.436 20.4948 9.97608 20.713C9.51614 20.9311 9.02409 21.0407 8.49992 21.0416C7.51581 21.0416 6.67997 20.6978 5.99242 20.0103C5.30297 19.3218 4.95825 18.486 4.95825 17.5028C4.95825 16.5196 5.30297 15.6833 5.99242 14.9939C6.68186 14.3044 7.5177 13.9592 8.49992 13.9583C9.02503 13.9583 9.51709 14.0678 9.97608 14.287C10.4351 14.5061 10.8384 14.8107 11.1859 15.2007L22.1552 8.73788C22.0891 8.56032 22.0399 8.37049 22.0078 8.16838C21.9748 7.96721 21.9583 7.77218 21.9583 7.58329C21.9583 6.59918 22.3025 5.76335 22.991 5.07579C23.6786 4.38635 24.5139 4.04163 25.4971 4.04163C26.4802 4.04163 27.3166 4.38588 28.006 5.07438C28.6954 5.76288 29.0406 6.59824 29.0416 7.58046C29.0425 8.56268 28.6978 9.39899 28.0074 10.0894C27.3208 10.7798 26.485 11.125 25.4999 11.125C24.9748 11.125 24.4828 11.0154 24.0238 10.7963C23.5648 10.5772 23.1615 10.2726 22.8139 9.88254L11.8461 16.3454C11.9113 16.5229 11.9599 16.7118 11.992 16.912C12.0251 17.1132 12.0416 17.3073 12.0416 17.4943C12.0416 17.6813 12.0251 17.8773 11.992 18.0822C11.9589 18.2872 11.9098 18.4784 11.8447 18.656L22.8139 25.1174C23.1605 24.7273 23.5638 24.4227 24.0238 24.2036C24.4837 23.9845 24.9758 23.875 25.4999 23.875C26.484 23.875 27.3199 24.2192 28.0074 24.9077C28.6969 25.5953 29.0416 26.4306 29.0416 27.4138C29.0416 28.397 28.6978 29.2333 28.0103 29.9227C27.3227 30.6122 26.4869 30.9573 25.5028 30.9583ZM25.4999 9.70829C26.0826 9.70829 26.5827 9.50004 27.0002 9.08354C27.4167 8.6661 27.6249 8.16601 27.6249 7.58329C27.6249 7.00057 27.4167 6.50049 27.0002 6.08304C26.5827 5.66654 26.0826 5.45829 25.4999 5.45829C24.9172 5.45829 24.4171 5.66654 23.9997 6.08304C23.5832 6.50049 23.3749 7.00057 23.3749 7.58329C23.3749 8.16601 23.5832 8.6661 23.9997 9.08354C24.4171 9.50004 24.9172 9.70829 25.4999 9.70829ZM8.49992 19.625C9.08264 19.625 9.58272 19.4167 10.0002 19.0002C10.4167 18.5828 10.6249 18.0827 10.6249 17.5C10.6249 16.9172 10.4167 16.4172 10.0002 15.9997C9.58367 15.5823 9.08359 15.374 8.49992 15.375C7.91625 15.3759 7.41617 15.5842 6.99967 15.9997C6.58317 16.4172 6.37492 16.9172 6.37492 17.5C6.37492 18.0827 6.58317 18.5828 6.99967 19.0002C7.41617 19.4177 7.91625 19.6259 8.49992 19.625ZM25.4999 29.5416C26.0826 29.5416 26.5827 29.3334 27.0002 28.9169C27.4167 28.4994 27.6249 27.9993 27.6249 27.4166C27.6249 26.8339 27.4167 26.3338 27.0002 25.9164C26.5827 25.4999 26.0826 25.2916 25.4999 25.2916C24.9172 25.2916 24.4171 25.4999 23.9997 25.9164C23.5832 26.3338 23.3749 26.8339 23.3749 27.4166C23.3749 27.9993 23.5832 28.4994 23.9997 28.9169C24.4171 29.3334 24.9172 29.5416 25.4999 29.5416Z" fill="#4A4949"/>
</svg>
