<svg width="24" height="24" viewBox="0 0 24 24" fill="none" xmlns="http://www.w3.org/2000/svg">
<path d="M21.25 9.94408C21.2484 10.5804 21.0499 11.2006 20.6818 11.7197C20.3137 12.2387 19.794 12.6311 19.194 12.8431C18.866 12.9675 18.5178 13.0302 18.167 13.0281C17.5307 13.0263 16.9106 12.8278 16.3916 12.4597C15.8725 12.0916 15.4801 11.572 15.268 10.9721C15.1435 10.6437 15.0808 10.2952 15.083 9.94408C15.086 10.2951 15.023 10.6441 14.898 10.9721C14.6861 11.5719 14.2938 12.0915 13.775 12.4596C13.2561 12.8277 12.6361 13.0262 12 13.0281C11.3639 13.0262 10.7439 12.8277 10.225 12.4596C9.70618 12.0915 9.31391 11.5719 9.102 10.9721C8.97744 10.6438 8.91472 10.2952 8.917 9.94408C8.919 10.2951 8.857 10.6441 8.732 10.9721C8.52003 11.5721 8.12761 12.0917 7.60858 12.4599C7.08954 12.828 6.46932 13.0264 5.833 13.0281C5.483 13.0301 5.133 12.9681 4.806 12.8431C4.2061 12.631 3.6865 12.2385 3.31841 11.7195C2.95032 11.2005 2.75178 10.5804 2.75 9.94408L3.212 8.32108L4.322 5.15508C4.46292 4.7523 4.72568 4.40335 5.07383 4.15662C5.42198 3.90988 5.83828 3.77759 6.265 3.77808H17.735C18.1615 3.7778 18.5776 3.91019 18.9256 4.15691C19.2735 4.40363 19.5361 4.75246 19.677 5.15508L20.787 8.32108L21.25 9.94408Z" stroke="#818181" stroke-width="1.5" stroke-linecap="round" stroke-linejoin="round"/>
<path d="M19.194 12.843V18.167C19.1937 18.712 18.9771 19.2345 18.5918 19.6198C18.2064 20.0052 17.6839 20.2218 17.139 20.222H6.85996C6.59 20.2221 6.32267 20.1691 6.07323 20.0659C5.82379 19.9627 5.59713 19.8113 5.4062 19.6205C5.21527 19.4296 5.06381 19.2031 4.96048 18.9537C4.85714 18.7043 4.80396 18.437 4.80396 18.167V12.843M8.91695 17.139H15.083" stroke="#818181" stroke-width="1.5" stroke-linecap="round" stroke-linejoin="round"/>
<path d="M4 8L17 8" stroke="#FF6D00"/>
</svg>
