<svg id="Layer_1" data-name="Layer 1" xmlns="http://www.w3.org/2000/svg" viewBox="0 0 481.5763 118.64015"><defs><style>.cls-1{fill:#fb7701;}</style></defs><path class="cls-1" d="M468.21094.0005a13.41369,13.41369,0,0,0-13.42542,13.36658V69.45229c0,17.63592-9.94787,26.67059-26.30383,26.60791-16.356,0-26.30273-9.336-26.24133-27.40125V13.36708a13.396,13.396,0,0,0-26.79187,0V69.26827c0,32.71057,20.01587,49.37188,52.72778,49.37188s53.46-16.47729,53.3999-50.16522V13.36708A13.324,13.324,0,0,0,468.21094.0005Z"/><path class="cls-1" d="M343.52979.00044h-8.29993a9.84033,9.84033,0,0,0-8.056,4.1507L297.94189,48.09236,268.64734,4.15114a9.75782,9.75782,0,0,0-8.056-4.15064V.00044h-8.29859a13.32317,13.32317,0,0,0-13.36523,13.36664v91.84778a13.3953,13.3953,0,1,0,26.79053,0V44.91768L288.298,76.77492a11.81563,11.81563,0,0,0,19.224,0l22.5813-31.85724v60.29718a13.396,13.396,0,1,0,26.79187,0V13.36708A13.32416,13.32416,0,0,0,343.52979.00044Z"/><path class="cls-1" d="M207.61938,26.79372a13.39665,13.39665,0,0,0,0-26.79322H135.05566a13.41359,13.41359,0,0,0-13.42529,13.36658v91.72516a13.42749,13.42749,0,0,0,13.42529,13.428h72.56372a13.42677,13.42677,0,0,0,0-26.85327H148.4209V72.62563h51.50928a13.39533,13.39533,0,1,0,0-26.79059H148.4209V26.79372Z"/><path class="cls-1" d="M91.7251.0005H13.42664a13.39664,13.39664,0,1,0,0,26.79322H39.17993v78.29852a13.396,13.396,0,1,0,26.792,0V26.79372H91.7251a13.39664,13.39664,0,1,0,0-26.79322Z"/></svg>