<svg width="45" height="46" viewBox="0 0 45 46" fill="none" xmlns="http://www.w3.org/2000/svg">
<path d="M0 33.3067V12.6837C0 11.8868 0.0768091 11.0899 0.230425 10.3026C0.384042 9.51536 0.614466 8.75688 0.921699 8.0176C1.22893 7.27832 1.60337 6.57745 2.04502 5.91498C2.48667 5.25251 2.99552 4.63804 3.56198 4.07158C4.12844 3.50512 4.74291 2.99627 5.40538 2.55462C6.08705 2.10337 6.78792 1.72893 7.5272 1.4217C8.26648 1.11447 9.02496 0.884041 9.81225 0.730424C10.5995 0.576808 11.3868 0.5 12.1933 0.5H32.8163C33.6132 0.5 34.4101 0.576808 35.1974 0.730424C35.9846 0.884041 36.7431 1.11447 37.4824 1.4217C38.2217 1.72893 38.9226 2.10337 39.585 2.54502C40.2475 2.98667 40.862 3.49552 41.4284 4.06198C41.9949 4.62844 42.5037 5.24291 42.9454 5.90538C43.387 6.56785 43.7615 7.26872 44.0687 8.008C44.3759 8.74728 44.6064 9.50576 44.76 10.293C44.9136 11.0803 44.9904 11.8676 44.9904 12.6741V33.2971C44.9904 34.094 44.9136 34.8909 44.76 35.6782C44.6064 36.4654 44.3759 37.2239 44.0687 37.9632C43.7615 38.7025 43.387 39.4034 42.9454 40.0658C42.5037 40.7283 41.9949 41.3428 41.4284 41.9092C40.862 42.4757 40.2475 42.9845 39.585 43.4262C38.9226 43.8678 38.2217 44.2423 37.4824 44.5495C36.7431 44.8567 35.9846 45.0872 35.1974 45.2408C34.4101 45.3944 33.6228 45.4712 32.8163 45.4712H12.1933C11.3964 45.4712 10.5995 45.3944 9.81225 45.2408C9.02496 45.0872 8.26648 44.8567 7.5272 44.5495C6.78792 44.2423 6.08705 43.8678 5.42458 43.4262C4.76211 42.9845 4.14764 42.4757 3.58118 41.9092C3.01472 41.3428 2.50587 40.7283 2.06422 40.0658C1.62257 39.4034 1.24813 38.7025 0.940901 37.9632C0.633668 37.2239 0.403244 36.4654 0.249627 35.6782C0.0864098 34.9005 0 34.1036 0 33.3067Z" fill="#FCFCFC"/>
<mask id="mask0_229_1139" style="mask-type:luminance" maskUnits="userSpaceOnUse" x="0" y="0" width="45" height="46">
<path d="M45 0.5H0V45.5H45V0.5Z" fill="white"/>
</mask>
<g mask="url(#mask0_229_1139)">
<path d="M34.8037 15.9961V16.0633C34.8037 16.6297 35.2742 17.1002 35.8406 17.1002C36.4167 17.1002 36.8775 16.6297 36.8775 16.0633V15.9961C36.8775 15.7368 37.7992 15.7368 37.7992 15.9961V16.0633C37.7992 17.1482 36.9159 18.0219 35.831 18.0219C34.7461 18.0219 33.8724 17.1386 33.8724 16.0633V15.9961C33.882 15.7464 34.8037 15.7464 34.8037 15.9961ZM17.5411 19.4812C18.2323 19.4812 18.7604 19.8173 18.9524 20.4509C18.482 20.5757 18.0115 20.6334 17.5315 20.6334C16.8114 20.6334 16.5522 20.5661 16.0913 20.4413C16.2737 19.8845 16.8882 19.4812 17.5411 19.4812ZM36.9927 14.0374H34.6981C33.2195 14.0374 31.9906 15.18 31.885 16.6585L31.7218 19.03C31.645 20.1533 32.5379 21.1038 33.6612 21.1134H38.0297C39.1626 21.1134 40.0459 20.1629 39.9691 19.03L39.8059 16.6585C39.7002 15.18 38.4713 14.0374 36.9927 14.0374ZM28.9759 13.9222C27.5741 15.2568 28.9183 18.1659 26.3644 19.3948C26.086 19.5292 25.846 19.0876 25.4715 19.0876C24.4058 19.0972 22.3608 20.0381 22.284 20.5085C22.2168 20.9022 23.0905 21.2094 25.6539 21.219C27.891 21.219 28.6111 17.8202 29.3887 17.8202C30.1664 17.8202 29.8016 20.9022 29.7248 21.219H30.5409C30.4737 20.9022 30.416 19.9325 30.4256 18.5691C30.4256 17.2058 30.6753 16.8986 30.8673 15.8712C31.0305 14.9687 29.7056 14.1911 28.9759 13.9222ZM16.7922 15.2664C16.1297 13.951 15.2656 13.7206 14.8336 14.0662C14.5071 14.3255 13.7391 15.372 13.6911 15.4392C12.8558 16.6297 12.9038 16.9178 13.9791 17.5994C14.584 17.9835 15.0736 17.4938 15.2848 17.3402C15.1792 17.9643 14.872 18.9532 14.4111 19.654C14.1615 19.462 13.9791 19.318 13.8639 19.2124C13.7199 19.078 13.499 19.0876 13.355 19.222C13.2878 19.2892 13.2494 19.3756 13.259 19.4716C13.259 19.5676 13.307 19.654 13.3646 19.7117C14.4879 20.739 15.9569 21.315 17.5219 21.3246C19.0964 21.3246 20.575 20.7486 21.6983 19.7117C21.8423 19.5772 21.8519 19.3564 21.7175 19.222C21.5735 19.078 21.3527 19.078 21.2087 19.2124C21.1223 19.2892 21.0358 19.366 20.9398 19.4428L20.4502 18.3483C20.3734 18.1563 20.287 17.9259 20.191 17.6378C20.239 17.5226 20.3446 17.4074 20.4886 17.2538C20.5942 17.1482 20.6806 17.0426 20.7478 16.9466C21.0743 16.4281 20.8918 16.1305 20.7862 15.9288C20.5558 15.4584 20.191 15.612 19.9221 15.8904C19.5957 16.2361 19.2789 16.3801 18.77 16.4953C18.3476 16.5913 18.0115 16.5433 17.7427 16.3705C17.3683 16.1305 16.7922 15.2664 16.7922 15.2664ZM10.5131 13.7974H10.3307C9.58182 13.8454 9.06337 14.1719 8.77534 14.6135C8.4393 14.1047 7.80563 13.7494 6.85513 13.807L6.83593 13.8358C6.73032 14.0086 6.31748 14.7959 6.97995 15.6504C7.11436 15.7944 7.4504 16.2073 7.31598 16.7257L5.37657 19.8557C5.22296 20.1149 5.29017 20.4413 5.53019 20.6141C6.02944 20.9694 7.03755 21.4494 8.78494 21.4494C10.5227 21.4494 11.5308 20.9694 12.0301 20.6141L12.0973 20.5565C12.2893 20.3741 12.3277 20.0861 12.1837 19.8557L10.2539 16.7257L10.2635 16.7833L10.2443 16.6969C10.1387 16.2265 10.3979 15.852 10.5515 15.6888L10.5899 15.6504C11.262 14.7959 10.8492 14.0086 10.7339 13.8358L10.7147 13.807L10.5131 13.7974ZM19.9413 23.8785H14.7184C14.1903 23.8785 13.7487 24.3105 13.7487 24.8386V31.4441C13.7487 31.9722 14.1807 32.4138 14.7184 32.4138H19.9413C20.4694 32.4138 20.911 31.9818 20.9014 31.4441C20.9014 30.916 20.4694 30.4744 19.9413 30.4744H15.6785V29.1015H19.3845C19.9125 29.1015 20.3542 28.6694 20.3542 28.1413C20.3542 27.6133 19.9221 27.1716 19.3845 27.1716H15.6785V25.7987H19.9413C20.4694 25.7987 20.911 25.3667 20.9014 24.829C20.9014 24.3105 20.4694 23.8785 19.9413 23.8785ZM11.5884 23.8785H5.95264C5.42458 23.8785 4.98293 24.3105 4.98293 24.8386C4.98293 25.3667 5.41498 25.8083 5.95264 25.8083H7.80563V31.4441C7.80563 31.9722 8.23768 32.4138 8.76574 32.4138C9.29379 32.4138 9.73544 31.9818 9.73544 31.4441V25.8083H11.5884C12.1165 25.8083 12.5581 25.3763 12.5581 24.8386C12.5581 24.3105 12.1261 23.8785 11.5884 23.8785ZM38.7017 23.8785C38.1737 23.8785 37.732 24.3105 37.732 24.8386V28.8806C37.732 30.148 37.012 30.8008 35.8406 30.8008C34.6597 30.8008 33.9492 30.1288 33.9492 28.823V24.8386C33.9492 24.3105 33.5172 23.8689 32.9795 23.8785C32.4515 23.8785 32.0098 24.3105 32.0194 24.8386V28.8614C32.0194 31.2137 33.4596 32.4138 35.8118 32.4138C38.1641 32.4138 39.6618 31.2233 39.6618 28.8038V24.8386C39.6618 24.3105 39.2394 23.8785 38.7017 23.8785ZM23.7529 23.8785H23.1577C22.6296 23.8785 22.188 24.3105 22.1976 24.8386V31.4537C22.1976 31.9818 22.6296 32.4234 23.1577 32.4234C23.6857 32.4234 24.1274 31.9914 24.1274 31.4537V27.114L25.75 29.4087C26.086 29.8791 26.7869 29.8791 27.1325 29.4087L28.7551 27.114V31.4537C28.7551 31.9818 29.1871 32.4234 29.7248 32.4234C30.2528 32.4234 30.6945 31.9914 30.6849 31.4537V24.8386C30.6849 24.3105 30.2528 23.8689 29.7248 23.8785H29.1295C28.8991 23.8785 28.6783 23.9841 28.5534 24.1761L26.4508 27.3445L24.3386 24.1761C24.2042 23.9937 23.9834 23.8785 23.7529 23.8785ZM35.0053 0.5C40.5259 0.5 45.0096 4.97408 45.0096 10.5043V35.4957C45.0096 41.0163 40.5355 45.5 35.0053 45.5H10.0043C4.48368 45.5 0 41.0259 0 35.4957V10.5043C0 4.98368 4.47408 0.5 10.0043 0.5H35.0053Z" fill="#FB7701"/>
</g>
</svg>
