<svg width="41" height="32" viewBox="0 0 41 32" fill="none" xmlns="http://www.w3.org/2000/svg">
<rect y="0.5" width="41" height="31" rx="15.5" fill="#4A4949"/>
<path d="M30 25.5L25.657 21.157M25.657 21.157C26.3998 20.4141 26.9891 19.5321 27.3912 18.5615C27.7932 17.5909 28.0002 16.5506 28.0002 15.5C28.0002 14.4494 27.7932 13.409 27.3912 12.4384C26.9891 11.4678 26.3998 10.5858 25.657 9.84296C24.9141 9.10007 24.0321 8.51078 23.0615 8.10874C22.0909 7.70669 21.0506 7.49976 20 7.49976C18.9494 7.49976 17.909 7.70669 16.9384 8.10874C15.9678 8.51078 15.0858 9.10007 14.343 9.84296C12.8426 11.3433 11.9998 13.3782 11.9998 15.5C11.9998 17.6217 12.8426 19.6566 14.343 21.157C15.8433 22.6573 17.8782 23.5002 20 23.5002C22.1217 23.5002 24.1566 22.6573 25.657 21.157Z" stroke="white" stroke-width="2" stroke-linecap="round" stroke-linejoin="round"/>
</svg>
