<svg width="25" height="24" viewBox="0 0 25 24" fill="none" xmlns="http://www.w3.org/2000/svg">
<path d="M12.6666 23.25C18.8798 23.25 23.9166 18.2132 23.9166 12C23.9166 5.7868 18.8798 0.75 12.6666 0.75C6.45342 0.75 1.41663 5.7868 1.41663 12C1.41663 18.2132 6.45342 23.25 12.6666 23.25Z" fill="white"/>
<path d="M9.44164 12.6375C10.4916 13.35 11.9541 13.05 12.6666 12C13.3791 10.95 14.8041 10.65 15.8916 11.3625C16.9041 12.0375 17.2041 13.35 16.6416 14.3625C17.8791 12.2625 17.3166 9.525 15.2166 8.1375C13.0791 6.7125 10.1916 7.275 8.76664 9.4125C8.72914 9.4875 8.69164 9.5625 8.65414 9.6C8.12914 10.6875 8.46664 11.9625 9.44164 12.6375Z" fill="#ED4C5C"/>
<path d="M15.8917 11.3625C14.8417 10.65 13.3792 10.95 12.6667 12C11.9542 13.05 10.5292 13.35 9.44168 12.6375C8.42918 11.9625 8.12918 10.65 8.69168 9.63745C7.41667 11.7375 8.01668 14.475 10.1167 15.8625C12.2542 17.2875 15.1417 16.725 16.5667 14.5875C16.6042 14.5125 16.6417 14.4375 16.6792 14.4C17.2042 13.3125 16.8667 12.0375 15.8917 11.3625Z" fill="#428BC1"/>
<path d="M3.59165 8.7376L6.17915 4.8751L5.91665 4.6876L5.65415 4.5376L3.06665 8.4001L3.32915 8.5501L3.59165 8.7376ZM4.30415 9.2251L4.56665 9.3751L7.11665 5.5126L6.89165 5.3626L6.62915 5.1751L4.04165 9.0376L4.30415 9.2251ZM7.56665 5.8126L5.01665 9.6751L5.27915 9.8626L5.54165 10.0126L8.09165 6.1501L7.82915 6.0001L7.56665 5.8126ZM18.8541 15.9376L19.1166 16.1251L20.3167 14.3251L20.0541 14.1376L19.7916 13.9876L18.5917 15.7876L18.8541 15.9376ZM21.7416 15.2626L20.5416 17.0626L20.8041 17.2501L21.0667 17.4001L22.2666 15.6001L22.0042 15.4501L21.7416 15.2626ZM20.0917 16.7626L21.2916 14.9626L21.0292 14.7751L20.7666 14.6251L19.5667 16.4251L19.8291 16.5751L20.0917 16.7626ZM18.7041 16.2001L18.4417 16.0501L17.2416 17.8501L17.5042 18.0001L17.7666 18.1876L18.9667 16.3876L18.7041 16.2001ZM19.6416 16.8376L19.4166 16.6876L18.2167 18.4876L18.4417 18.6376L18.7041 18.8251L19.9042 17.0251L19.6416 16.8376ZM20.3541 17.3251L19.1542 19.1251L19.4166 19.3126L19.6791 19.4626L20.8792 17.6626L20.6166 17.4751L20.3541 17.3251ZM3.32915 15.4501L3.06665 15.6001L5.65415 19.4626L5.91665 19.3126L6.17915 19.1251L3.59165 15.2626L3.32915 15.4501ZM5.69165 16.8376L5.42915 17.0251L6.62915 18.8251L6.89165 18.6376L7.11665 18.4876L5.91665 16.6876L5.69165 16.8376ZM5.27915 14.1376L5.01665 14.3251L7.56665 18.1876L7.82915 18.0001L8.09165 17.8501L5.54165 13.9876L5.27915 14.1376ZM4.04165 14.9626L5.24165 16.7626L5.50415 16.5751L5.76665 16.4251L4.56665 14.6251L4.30415 14.7751L4.04165 14.9626ZM20.6166 6.5251L20.8792 6.3376L19.6791 4.5376L19.4166 4.6876L19.1542 4.8751L20.3541 6.6751L20.6166 6.5251ZM18.7041 7.8001L18.9667 7.6126L17.7666 5.8126L17.5042 6.0001L17.2416 6.1501L18.4417 7.9501L18.7041 7.8001ZM20.5416 6.9376L21.7416 8.7376L22.0042 8.5501L22.2666 8.4001L21.0667 6.6001L20.8041 6.7501L20.5416 6.9376ZM21.0292 9.2251L21.2916 9.0376L18.7041 5.1751L18.4417 5.3626L18.2167 5.5126L20.7666 9.3751L21.0292 9.2251ZM20.0541 9.8626L20.3167 9.6751L19.1166 7.8751L18.8541 8.0626L18.5917 8.2126L19.7916 10.0126L20.0541 9.8626Z" fill="#3E4347"/>
</svg>
