<svg width="16" height="16" viewBox="0 0 16 16" fill="none" xmlns="http://www.w3.org/2000/svg">
<path d="M13.354 13.86C13.6606 14.1667 14.134 13.6934 13.8273 13.3934L11.3273 10.8867C12.2045 9.91651 12.6893 8.65464 12.6873 7.34671C12.6873 4.42004 10.3073 2.04004 7.38064 2.04004C4.45397 2.04004 2.07397 4.42004 2.07397 7.34671C2.07397 10.2734 4.45397 12.6534 7.38064 12.6534C8.70064 12.6534 9.92064 12.1667 10.854 11.36L13.354 13.86ZM2.73997 7.34671C2.73997 4.78671 4.82664 2.70671 7.37997 2.70671C9.93997 2.70671 12.02 4.78671 12.02 7.34671C12.02 9.90671 9.93997 11.9867 7.37997 11.9867C4.82664 11.9867 2.73997 9.90671 2.73997 7.34671Z" fill="#4A4949"/>
</svg>
