<svg width="31" height="32" viewBox="0 0 31 32" fill="none" xmlns="http://www.w3.org/2000/svg">
<rect y="0.5" width="31" height="31" rx="15.5" fill="#4A4949"/>
<path d="M25 25.5L20.657 21.157M20.657 21.157C21.3998 20.4141 21.9891 19.5321 22.3912 18.5615C22.7932 17.5909 23.0002 16.5506 23.0002 15.5C23.0002 14.4494 22.7932 13.409 22.3912 12.4384C21.9891 11.4678 21.3998 10.5858 20.657 9.84296C19.9141 9.10007 19.0321 8.51078 18.0615 8.10874C17.0909 7.70669 16.0506 7.49976 15 7.49976C13.9494 7.49976 12.909 7.70669 11.9384 8.10874C10.9678 8.51078 10.0858 9.10007 9.34296 9.84296C7.84263 11.3433 6.99976 13.3782 6.99976 15.5C6.99976 17.6217 7.84263 19.6566 9.34296 21.157C10.8433 22.6573 12.8782 23.5002 15 23.5002C17.1217 23.5002 19.1566 22.6573 20.657 21.157Z" stroke="white" stroke-width="2" stroke-linecap="round" stroke-linejoin="round"/>
</svg>
