<svg width="14" height="12" viewBox="0 0 14 12" fill="none" xmlns="http://www.w3.org/2000/svg">
<g clip-path="url(#clip0_1770_1473)">
<path d="M1.91815 10.5299H1.13412V11.3045H0.365723V8.45557H1.91815C2.5616 8.45557 2.89583 8.94909 2.89583 9.4926C2.89583 10.0361 2.5616 10.5299 1.91815 10.5299ZM1.73698 9.89866C1.97125 9.89866 2.12743 9.73624 2.12743 9.4926C2.12743 9.24896 1.97125 9.08653 1.73698 9.08653H1.13412V9.89866H1.73698Z" fill="#FF6D00"/>
<path d="M3.99533 10.5299V11.3045H3.22693V8.45557H4.77935C5.42281 8.45557 5.75703 8.94909 5.75703 9.4926C5.75703 9.84556 5.61647 10.1798 5.3416 10.3672L5.80701 11.3043H5.01674L4.62317 10.5296H3.99533V10.5299ZM4.59818 9.89866C4.83245 9.89866 4.98863 9.73624 4.98863 9.4926C4.98863 9.24896 4.83245 9.08653 4.59818 9.08653H3.99533V9.89866H4.59818Z" fill="#FF6D00"/>
<path d="M6.07562 11.3045V8.45557H6.84402V11.3043H6.07562V11.3045Z" fill="#FF6D00"/>
<path d="M7.30011 9.16147C7.30011 8.69918 7.51876 8.39307 7.94357 8.39307C8.29029 8.39307 8.58078 8.60235 8.65262 8.97405L8.94936 10.5421H8.9806L9.27734 8.97405C9.34918 8.60235 9.63968 8.39307 9.98639 8.39307C10.4112 8.39307 10.6299 8.69918 10.6299 9.16147V11.3074H9.92392V9.22082H9.89893L9.60219 10.7889C9.53035 11.1606 9.3117 11.3698 8.96498 11.3698C8.61826 11.3698 8.39961 11.1606 8.32777 10.7889L8.03103 9.22082H8.00604V11.3074H7.30011V9.16147Z" fill="#FF6D00"/>
<path d="M12.0417 10.6611H13.4629V11.3045H11.7731C11.3608 11.3045 11.0859 11.0296 11.0859 10.6173V8.45581H13.4629V9.09927H11.8543V9.53345H13.4317V10.1644H11.8543V10.4736C11.8543 10.5861 11.9292 10.6611 12.0417 10.6611Z" fill="#FF6D00"/>
<path d="M3.36916 3.42944H1.43518V4.03758H3.3336C3.33288 4.00659 3.3324 3.97559 3.3324 3.94459C3.3324 3.77088 3.34489 3.59884 3.36916 3.42944Z" fill="#FF6D00"/>
<path d="M1.07477 4.37476V4.98289H3.48522C3.42515 4.78419 3.38262 4.58115 3.35811 4.37476H1.07477Z" fill="#FF6D00"/>
<path d="M3.61208 5.33569H1.43518V5.94383H3.93982C3.81319 5.75497 3.70459 5.55434 3.6152 5.3429C3.61424 5.3405 3.61328 5.3381 3.61208 5.33569Z" fill="#FF6D00"/>
<path d="M10.514 4.03758H12.3937V3.42944H10.4785C10.5027 3.59908 10.5152 3.77088 10.5152 3.94459C10.5152 3.97559 10.5147 4.00659 10.514 4.03758Z" fill="#FF6D00"/>
<path d="M12.7539 4.98289V4.37476H10.4895C10.465 4.58115 10.4225 4.78419 10.3624 4.98289H12.7539Z" fill="#FF6D00"/>
<path d="M9.90784 5.94383H12.3935V5.33569H10.2353C10.2344 5.3381 10.2334 5.3405 10.2324 5.3429C10.1431 5.55434 10.0345 5.75521 9.90784 5.94383Z" fill="#FF6D00"/>
<path d="M6.92381 1.59671C8.22058 1.59671 9.27179 2.64792 9.27179 3.94469C9.27179 5.24146 8.22058 6.29266 6.92381 6.29266C5.62704 6.29266 4.57583 5.24146 4.57583 3.94469C4.57583 2.64792 5.62704 1.59671 6.92381 1.59671ZM6.92381 0.763916C6.49468 0.763916 6.07804 0.848013 5.68543 1.01428C5.30651 1.17455 4.96652 1.40377 4.67459 1.69571C4.38265 1.98764 4.15343 2.32763 3.99317 2.70655C3.82713 3.09916 3.7428 3.5158 3.7428 3.94493C3.7428 4.37406 3.82689 4.7907 3.99317 5.18331C4.15343 5.56222 4.38265 5.90222 4.67459 6.19415C4.96652 6.48609 5.30651 6.71531 5.68543 6.87557C6.07804 7.0416 6.49468 7.12594 6.92381 7.12594C7.35294 7.12594 7.76958 7.04184 8.16219 6.87557C8.54111 6.71531 8.8811 6.48609 9.17303 6.19415C9.46497 5.90222 9.69419 5.56222 9.85445 5.18331C10.0205 4.7907 10.1048 4.37406 10.1048 3.94493C10.1048 3.5158 10.0207 3.09916 9.85445 2.70655C9.69419 2.32763 9.46497 1.98764 9.17303 1.69571C8.8811 1.40377 8.54111 1.17455 8.16219 1.01428C7.76934 0.848013 7.3527 0.763916 6.92381 0.763916Z" fill="#FF6D00"/>
<path d="M7.35728 4.58894H6.60161V5.33572H5.86084V2.58984H7.35728C7.97743 2.58984 8.29964 3.06559 8.29964 3.58939C8.29964 4.11343 7.97743 4.58894 7.35728 4.58894ZM7.1826 3.9808C7.40846 3.9808 7.55887 3.82414 7.55887 3.58939C7.55887 3.35464 7.40822 3.19798 7.1826 3.19798H6.60161V3.9808H7.1826Z" fill="#FF6D00"/>
</g>
<defs>
<clipPath id="clip0_1770_1473">
<rect width="13.0972" height="10.6063" fill="white" transform="translate(0.365723 0.763916)"/>
</clipPath>
</defs>
</svg>
