<svg width="34" height="34" viewBox="0 0 34 34" fill="none" xmlns="http://www.w3.org/2000/svg">
<path d="M16.9997 2.83331C9.17967 2.83331 2.83301 9.17998 2.83301 17C2.83301 24.82 9.17967 31.1666 16.9997 31.1666C24.8197 31.1666 31.1663 24.82 31.1663 17C31.1663 9.17998 24.8197 2.83331 16.9997 2.83331ZM16.9997 28.3333C10.7522 28.3333 5.66634 23.2475 5.66634 17C5.66634 10.7525 10.7522 5.66665 16.9997 5.66665C23.2472 5.66665 28.333 10.7525 28.333 17C28.333 23.2475 23.2472 28.3333 16.9997 28.3333ZM22.9072 20.91L21.3488 19.3516C22.3547 17.4675 22.0997 15.0875 20.513 13.5008C20.0532 13.037 19.5059 12.6692 18.9028 12.4187C18.2996 12.1682 17.6527 12.04 16.9997 12.0416C16.9572 12.0416 16.9147 12.0558 16.8722 12.0558L18.4163 13.6L16.9147 15.1016L12.9055 11.0925L16.9147 7.08331L18.4163 8.58498L17.0563 9.94498C18.8555 9.95915 20.6405 10.625 22.0147 11.985C24.423 14.4075 24.7205 18.1616 22.9072 20.91ZM21.0938 22.9075L17.0847 26.9166L15.583 25.415L16.9288 24.0691C15.0775 24.0547 13.3063 23.3116 11.9988 22.0008C10.8457 20.8465 10.1259 19.3299 9.96075 17.7066C9.79559 16.0834 10.1952 14.4529 11.0922 13.09L12.6505 14.6483C11.6447 16.5325 11.8997 18.9125 13.4863 20.4991C14.478 21.4908 15.7955 21.9725 17.113 21.93L15.583 20.4L17.0847 18.8983L21.0938 22.9075Z" fill="#FFF7A7"/>
</svg>
