<svg width="34" height="34" viewBox="0 0 34 34" fill="none" xmlns="http://www.w3.org/2000/svg">
<path d="M24.0833 28.3334C25.6481 28.3334 26.9167 27.0648 26.9167 25.5C26.9167 23.9352 25.6481 22.6667 24.0833 22.6667C22.5185 22.6667 21.25 23.9352 21.25 25.5C21.25 27.0648 22.5185 28.3334 24.0833 28.3334Z" stroke="#ADFFA2" stroke-width="1.5" stroke-linecap="round" stroke-linejoin="round"/>
<path d="M9.91634 28.3334C11.4811 28.3334 12.7497 27.0648 12.7497 25.5C12.7497 23.9352 11.4811 22.6667 9.91634 22.6667C8.35153 22.6667 7.08301 23.9352 7.08301 25.5C7.08301 27.0648 8.35153 28.3334 9.91634 28.3334Z" stroke="#ADFFA2" stroke-width="1.5" stroke-linecap="round" stroke-linejoin="round"/>
<path d="M7.08301 25.4604C5.52892 25.3839 4.56134 25.1529 3.87001 24.463C3.17867 23.7731 2.94917 22.8041 2.87267 21.25M12.7497 25.5H21.2497M26.9163 25.4604C28.4704 25.3839 29.438 25.1529 30.1293 24.463C31.1663 23.4246 31.1663 21.7558 31.1663 18.4167V15.5834H24.508C23.4526 15.5834 22.9256 15.5834 22.4992 15.4445C22.074 15.3063 21.6875 15.0695 21.3713 14.7534C21.0552 14.4372 20.8183 14.0507 20.6802 13.6255C20.5413 13.1991 20.5413 12.6721 20.5413 11.6167C20.5413 10.0343 20.5413 9.24377 20.3331 8.60344C20.1258 7.96562 19.7706 7.3859 19.2963 6.91168C18.8221 6.43746 18.2424 6.0822 17.6046 5.87494C16.9643 5.66669 16.1738 5.66669 14.5913 5.66669H2.83301M2.83301 11.3334H11.333M2.83301 15.5834H8.49967" stroke="#ADFFA2" stroke-width="1.5" stroke-linecap="round" stroke-linejoin="round"/>
<path d="M20.541 8.5H23.1208C25.1834 8.5 26.2133 8.5 27.052 9.0015C27.8921 9.50158 28.3809 10.4097 29.3584 12.2258L31.166 15.5833" stroke="#ADFFA2" stroke-width="1.5" stroke-linecap="round" stroke-linejoin="round"/>
</svg>
