<svg width="34" height="34" viewBox="0 0 34 34" fill="none" xmlns="http://www.w3.org/2000/svg">
<path d="M17 22.6667L18.9833 20.6834L16.7521 18.4167H22.6667V15.5834H16.7521L18.9833 13.3167L17 11.3334L11.3333 17L17 22.6667ZM7.08333 29.75C6.30417 29.75 5.63739 29.4728 5.083 28.9184C4.52861 28.364 4.25094 27.6968 4.25 26.9167V7.08335C4.25 6.30419 4.52767 5.63741 5.083 5.08302C5.63833 4.52863 6.30511 4.25096 7.08333 4.25002H13.0333C13.3403 3.40002 13.8541 2.7153 14.5747 2.19585C15.2953 1.67641 16.1037 1.41669 17 1.41669C17.8963 1.41669 18.7052 1.67641 19.4267 2.19585C20.1483 2.7153 20.6616 3.40002 20.9667 4.25002H26.9167C27.6958 4.25002 28.3631 4.52769 28.9184 5.08302C29.4737 5.63835 29.7509 6.30513 29.75 7.08335V26.9167C29.75 27.6959 29.4728 28.3631 28.9184 28.9184C28.364 29.4738 27.6968 29.751 26.9167 29.75H7.08333ZM7.08333 26.9167H26.9167V7.08335H7.08333V26.9167ZM17 6.02085C17.3069 6.02085 17.561 5.92027 17.7622 5.7191C17.9633 5.51794 18.0634 5.26435 18.0625 4.95835C18.0616 4.65235 17.961 4.39877 17.7607 4.1976C17.5605 3.99644 17.3069 3.89585 17 3.89585C16.6931 3.89585 16.4395 3.99644 16.2393 4.1976C16.039 4.39877 15.9384 4.65235 15.9375 4.95835C15.9366 5.26435 16.0371 5.51841 16.2393 5.72052C16.4414 5.92263 16.6949 6.02274 17 6.02085Z" fill="#FFF7A7"/>
</svg>
