<svg width="45" height="45" viewBox="0 0 45 45" fill="none" xmlns="http://www.w3.org/2000/svg">
<path d="M11.25 36.5625V10.53C11.25 9.66625 11.5394 8.94562 12.1181 8.36812C12.6969 7.79062 13.4175 7.50125 14.28 7.5H30.7219C31.5844 7.5 32.305 7.78937 32.8838 8.36812C33.4625 8.94687 33.7512 9.6675 33.75 10.53V36.5625L22.5 31.7306L11.25 36.5625ZM13.125 33.6563L22.5 29.625L31.875 33.6563V10.53C31.875 10.2413 31.755 9.97625 31.515 9.735C31.275 9.49375 31.01 9.37375 30.72 9.375H14.28C13.9913 9.375 13.7262 9.495 13.485 9.735C13.2437 9.975 13.1237 10.24 13.125 10.53V33.6563Z" fill="#4A4949"/>
</svg>
