<svg width="120" height="120" viewBox="0 0 120 120" fill="none" xmlns="http://www.w3.org/2000/svg">
<path d="M10.0254 47.5V20C10.0254 18.6739 10.5522 17.4021 11.4899 16.4645C12.4275 15.5268 13.6993 15 15.0254 15H105.025C106.351 15 107.623 15.5268 108.561 16.4645C109.499 17.4021 110.025 18.6739 110.025 20V47.5C106.71 47.5 103.531 48.817 101.187 51.1612C98.8423 53.5054 97.5254 56.6848 97.5254 60C97.5254 63.3152 98.8423 66.4946 101.187 68.8388C103.531 71.183 106.71 72.5 110.025 72.5V100C110.025 101.326 109.499 102.598 108.561 103.536C107.623 104.473 106.351 105 105.025 105H15.0254C13.6993 105 12.4275 104.473 11.4899 103.536C10.5522 102.598 10.0254 101.326 10.0254 100V72.5C13.3406 72.5 16.52 71.183 18.8642 68.8388C21.2084 66.4946 22.5254 63.3152 22.5254 60C22.5254 56.6848 21.2084 53.5054 18.8642 51.1612C16.52 48.817 13.3406 47.5 10.0254 47.5ZM70.0254 25H20.0254V39.84C23.7814 41.7015 26.9428 44.5753 29.1529 48.1373C31.3631 51.6993 32.5342 55.808 32.5342 60C32.5342 64.192 31.3631 68.3007 29.1529 71.8627C26.9428 75.4248 23.7814 78.2985 20.0254 80.16V95H70.0254V25ZM80.0254 25V95H100.025V80.16C96.2693 78.2985 93.108 75.4248 90.8979 71.8627C88.6877 68.3007 87.5166 64.192 87.5166 60C87.5166 55.808 88.6877 51.6993 90.8979 48.1373C93.108 44.5753 96.2693 41.7015 100.025 39.84V25H80.0254Z" fill="#D4D4D4"/>
</svg>
