<svg width="13" height="14" viewBox="0 0 13 14" fill="none" xmlns="http://www.w3.org/2000/svg">
<g clip-path="url(#clip0_547_8147)">
<path d="M7.74077 13.1318H8.49662C9.1768 13.1318 9.76436 13.0884 10.1509 12.9958C10.9016 12.8108 11.3696 12.2884 11.3696 11.6192C11.3692 11.4864 11.349 11.3544 11.3097 11.2275C11.6851 10.9555 11.8971 10.5365 11.8971 10.0849C11.8971 9.86207 11.8536 9.64433 11.7722 9.46465C12.0224 9.20906 12.1747 8.83345 12.1747 8.43625C12.1747 8.18066 12.1097 7.90859 11.9952 7.71266C12.1531 7.48981 12.2402 7.19034 12.2402 6.85838C12.2402 6.04774 11.6087 5.40586 10.7983 5.40586H8.74153C8.61107 5.40586 8.52402 5.34597 8.52402 5.23709C8.52402 4.6442 9.44887 3.26759 9.44887 2.16306C9.44887 1.41231 8.92655 0.868164 8.20296 0.868164C7.66973 0.868164 7.31061 1.14557 6.95705 1.82041C6.29312 3.09349 5.50964 4.21984 4.21475 5.79749H3.18102C1.83714 5.79749 0.759766 7.3157 0.759766 9.17099C0.759766 11.0044 1.94602 12.5278 3.38762 12.5278H5.18325C5.9015 12.9034 6.77203 13.1318 7.74053 13.1318M8.50196 12.3103L7.74587 12.2993C5.46623 12.2831 3.92109 10.9935 3.92109 9.14359C3.92109 7.96849 4.18225 7.2175 4.92209 6.22741C5.74387 5.13379 6.87534 3.82241 7.69155 2.19579C7.90907 1.76052 8.02352 1.68972 8.20296 1.68972C8.46946 1.68972 8.62732 1.85849 8.62732 2.16329C8.62732 3.0445 7.70246 4.38304 7.70246 5.23709C7.70246 5.85204 8.21387 6.22741 8.86132 6.22741H10.7983C11.1574 6.22741 11.4186 6.49949 11.4186 6.85861C11.4186 7.11977 11.3369 7.28831 11.1247 7.49515C11.0704 7.54947 11.043 7.60402 11.043 7.66368C11.043 7.70732 11.0592 7.75631 11.0976 7.79972C11.277 8.06088 11.3531 8.22407 11.3531 8.43625C11.3531 8.69765 11.228 8.91516 10.9831 9.10552C10.8798 9.18166 10.8252 9.26872 10.8252 9.36134C10.8252 9.39384 10.8308 9.43215 10.8526 9.47022C11.0105 9.76945 11.0755 9.889 11.0755 10.0849C11.0755 10.3788 10.8907 10.6019 10.4991 10.8032C10.4174 10.8466 10.3684 10.9121 10.3684 10.9935C10.3684 11.026 10.3793 11.0588 10.3956 11.0968C10.5316 11.4288 10.5478 11.4831 10.5478 11.6192C10.5478 11.8859 10.3521 12.0981 9.95494 12.196C9.63389 12.2775 9.12225 12.3156 8.50196 12.3103ZM3.38809 11.7062C2.42493 11.7062 1.58155 10.5474 1.58155 9.17099C1.58155 7.76722 2.33787 6.61904 3.18125 6.61904H3.68175C3.27364 7.38093 3.09953 8.18066 3.09953 9.12734C3.09953 10.1502 3.46957 11.0316 4.12793 11.7064L3.38809 11.7062Z" fill="black"/>
</g>
<defs>
<clipPath id="clip0_547_8147">
<rect width="13" height="13" fill="white" transform="translate(0 0.5)"/>
</clipPath>
</defs>
</svg>
