<svg width="16" height="16" viewBox="0 0 16 16" fill="none" xmlns="http://www.w3.org/2000/svg">
<path d="M5.29344 1.63556C5.10597 1.82309 5.00065 2.0774 5.00065 2.34256C5.00065 2.60772 5.10597 2.86203 5.29344 3.04956L10.2434 7.99956L5.29344 12.9496C5.11128 13.1382 5.01049 13.3908 5.01277 13.653C5.01504 13.9152 5.12021 14.166 5.30562 14.3514C5.49103 14.5368 5.74184 14.642 6.00404 14.6442C6.26624 14.6465 6.51884 14.5457 6.70744 14.3636L12.3644 8.70656C12.5519 8.51903 12.6572 8.26472 12.6572 7.99956C12.6572 7.7344 12.5519 7.48009 12.3644 7.29256L6.70744 1.63556C6.51991 1.44809 6.2656 1.34277 6.00044 1.34277C5.73528 1.34277 5.48097 1.44809 5.29344 1.63556Z" fill="#292828"/>
</svg>
