<svg width="16" height="16" viewBox="0 0 16 16" fill="none" xmlns="http://www.w3.org/2000/svg">
<path fill-rule="evenodd" clip-rule="evenodd" d="M1.33301 8.00033C1.33301 7.26395 1.92996 6.66699 2.66634 6.66699H13.333C14.0694 6.66699 14.6663 7.26395 14.6663 8.00033V14.0003C14.6663 14.7367 14.0694 15.3337 13.333 15.3337H2.66634C1.92996 15.3337 1.33301 14.7367 1.33301 14.0003V8.00033ZM13.333 8.00033H2.66634V14.0003H13.333V8.00033Z" fill="#009E95"/>
<path fill-rule="evenodd" clip-rule="evenodd" d="M8 2.00033C6.52719 2.00033 5.33333 3.19418 5.33333 4.66699V7.33366C5.33333 7.70185 5.03486 8.00033 4.66667 8.00033C4.29848 8.00033 4 7.70185 4 7.33366V4.66699C4 2.4578 5.79081 0.666992 8 0.666992C10.2092 0.666992 12 2.4578 12 4.66699V7.33366C12 7.70185 11.7015 8.00033 11.3333 8.00033C10.9651 8.00033 10.6667 7.70185 10.6667 7.33366V4.66699C10.6667 3.19418 9.47281 2.00033 8 2.00033ZM8 9.33366C8.36819 9.33366 8.66667 9.63214 8.66667 10.0003V12.0003C8.66667 12.3685 8.36819 12.667 8 12.667C7.63181 12.667 7.33333 12.3685 7.33333 12.0003V10.0003C7.33333 9.63214 7.63181 9.33366 8 9.33366Z" fill="#009E95"/>
</svg>
