<svg width="18" height="18" viewBox="0 0 18 18" fill="none" xmlns="http://www.w3.org/2000/svg">
<path d="M14.25 3C14.8467 3 15.419 3.23705 15.841 3.65901C16.2629 4.08097 16.5 4.65326 16.5 5.25V12.75C16.5 13.3467 16.2629 13.919 15.841 14.341C15.419 14.7629 14.8467 15 14.25 15H3.75C3.15326 15 2.58097 14.7629 2.15901 14.341C1.73705 13.919 1.5 13.3467 1.5 12.75V5.25C1.5 4.65326 1.73705 4.08097 2.15901 3.65901C2.58097 3.23705 3.15326 3 3.75 3H14.25ZM15 7.5H3V12.75C3.00002 12.9337 3.06747 13.111 3.18954 13.2483C3.31161 13.3856 3.47981 13.4733 3.66225 13.4948L3.75 13.5H14.25C14.4337 13.5 14.611 13.4325 14.7483 13.3105C14.8856 13.1884 14.9733 13.0202 14.9947 12.8378L15 12.75V7.5ZM12.75 9.75C12.9412 9.75021 13.125 9.82341 13.264 9.95464C13.403 10.0859 13.4867 10.2652 13.4979 10.456C13.5091 10.6469 13.447 10.8348 13.3243 10.9814C13.2016 11.128 13.0276 11.2222 12.8377 11.2448L12.75 11.25H10.5C10.3088 11.2498 10.125 11.1766 9.98597 11.0454C9.84697 10.9141 9.76332 10.7348 9.75212 10.544C9.74092 10.3531 9.80301 10.1652 9.9257 10.0186C10.0484 9.87204 10.2224 9.77783 10.4122 9.75525L10.5 9.75H12.75ZM14.25 4.5H3.75C3.55109 4.5 3.36032 4.57902 3.21967 4.71967C3.07902 4.86032 3 5.05109 3 5.25V6H15V5.25C15 5.05109 14.921 4.86032 14.7803 4.71967C14.6397 4.57902 14.4489 4.5 14.25 4.5Z" fill="#009E95"/>
</svg>
