<svg width="22" height="20" viewBox="0 0 22 20" fill="none" xmlns="http://www.w3.org/2000/svg">
<path d="M13.5418 3.33301C14.0206 3.33301 14.4799 3.5086 14.8185 3.82116C15.1571 4.13372 15.3473 4.55765 15.3473 4.99967V5.83301H16.7196C16.9902 5.83304 17.2573 5.88922 17.5013 5.99741C17.7452 6.10559 17.9596 6.263 18.1288 6.45801L19.4649 8.00051C19.7214 8.29608 19.8612 8.66347 19.8612 9.04217V12.4997C19.8612 12.9417 19.671 13.3656 19.3324 13.6782C18.9938 13.9907 18.5345 14.1663 18.0557 14.1663C18.0557 14.8294 17.7703 15.4653 17.2624 15.9341C16.7545 16.403 16.0656 16.6663 15.3473 16.6663C14.629 16.6663 13.9402 16.403 13.4322 15.9341C12.9243 15.4653 12.639 14.8294 12.639 14.1663H9.02789C9.02789 14.4946 8.95783 14.8197 8.82173 15.1231C8.68562 15.4264 8.48613 15.702 8.23463 15.9341C7.98314 16.1663 7.68458 16.3504 7.35599 16.476C7.0274 16.6017 6.67522 16.6663 6.31955 16.6663C5.96389 16.6663 5.61171 16.6017 5.28312 16.476C4.95453 16.3504 4.65596 16.1663 4.40447 15.9341C4.15298 15.702 3.95349 15.4264 3.81738 15.1231C3.68127 14.8197 3.61122 14.4946 3.61122 14.1663C3.13236 14.1663 2.67311 13.9907 2.3345 13.6782C1.99589 13.3656 1.80566 12.9417 1.80566 12.4997V4.99967C1.80566 4.55765 1.99589 4.13372 2.3345 3.82116C2.67311 3.5086 3.13236 3.33301 3.61122 3.33301H13.5418ZM6.31955 13.333C6.08012 13.333 5.8505 13.4208 5.68119 13.5771C5.51189 13.7334 5.41677 13.9453 5.41677 14.1663C5.41677 14.3874 5.51189 14.5993 5.68119 14.7556C5.8505 14.9119 6.08012 14.9997 6.31955 14.9997C6.55898 14.9997 6.78861 14.9119 6.95791 14.7556C7.12722 14.5993 7.22233 14.3874 7.22233 14.1663C7.22233 13.9453 7.12722 13.7334 6.95791 13.5771C6.78861 13.4208 6.55898 13.333 6.31955 13.333ZM15.3473 13.333C15.1079 13.333 14.8783 13.4208 14.709 13.5771C14.5397 13.7334 14.4446 13.9453 14.4446 14.1663C14.4446 14.3874 14.5397 14.5993 14.709 14.7556C14.8783 14.9119 15.1079 14.9997 15.3473 14.9997C15.5868 14.9997 15.8164 14.9119 15.9857 14.7556C16.155 14.5993 16.2501 14.3874 16.2501 14.1663C16.2501 13.9453 16.155 13.7334 15.9857 13.5771C15.8164 13.4208 15.5868 13.333 15.3473 13.333ZM13.5418 4.99967H3.61122V12.4997H4.30094C4.5451 12.2471 4.84234 12.043 5.17459 11.8997C5.50684 11.7565 5.86717 11.677 6.2337 11.6663C6.60023 11.6555 6.9653 11.7137 7.30674 11.8372C7.64817 11.9607 7.95885 12.1469 8.2199 12.3847L8.33816 12.4997H13.3287L13.4325 12.3988L13.5418 12.303V4.99967ZM16.7196 7.49967H15.3473V11.6663C16.0876 11.6663 16.7584 11.9413 17.2477 12.3847L17.3659 12.4997H18.0557V9.04134L16.7196 7.49967Z" fill="#009E95"/>
<path fill-rule="evenodd" clip-rule="evenodd" d="M11.3135 6.76339C11.6139 7.06379 11.6139 7.55084 11.3135 7.85124L8.62118 10.5436C8.46646 10.6983 8.25318 10.7798 8.03471 10.7677C7.81625 10.7556 7.61327 10.651 7.47658 10.4802L5.93812 8.55708C5.67273 8.22534 5.72652 7.74127 6.05826 7.47588C6.39 7.21049 6.87407 7.26427 7.13946 7.59601L8.14104 8.84798L10.2256 6.76339C10.526 6.46299 11.0131 6.46299 11.3135 6.76339Z" fill="#009E95"/>
</svg>
