<svg width="21" height="20" viewBox="0 0 21 20" fill="none" xmlns="http://www.w3.org/2000/svg">
<path d="M6.78355 2.04469C6.54921 2.2791 6.41757 2.59699 6.41757 2.92844C6.41757 3.2599 6.54921 3.57778 6.78355 3.81219L12.971 9.99969L6.78355 16.1872C6.55585 16.4229 6.42986 16.7387 6.43271 17.0664C6.43555 17.3942 6.56701 17.7077 6.79877 17.9395C7.03053 18.1712 7.34405 18.3027 7.6718 18.3055C7.99954 18.3084 8.3153 18.1824 8.55105 17.9547L15.6223 10.8834C15.8566 10.649 15.9883 10.3311 15.9883 9.99969C15.9883 9.66824 15.8566 9.35035 15.6223 9.11594L8.55105 2.04469C8.31664 1.81036 7.99875 1.67871 7.6673 1.67871C7.33584 1.67871 7.01796 1.81036 6.78355 2.04469Z" fill="white"/>
</svg>
