<svg width="19" height="22" viewBox="0 0 19 22" fill="none" xmlns="http://www.w3.org/2000/svg">
<g clip-path="url(#clip0_469_2771)">
<path d="M9.06838 0.5C8.35183 0.5 7.77293 1.08652 7.77293 1.8125V2.6C4.81767 3.20703 2.59111 5.85664 2.59111 9.03125V9.80234C2.59111 11.7301 1.89076 13.5922 0.627687 15.0359L0.328114 15.3764C-0.0119432 15.7619 -0.0929092 16.3156 0.113554 16.7873C0.320017 17.259 0.785571 17.5625 1.29566 17.5625H16.8411C17.3512 17.5625 17.8127 17.259 18.0232 16.7873C18.2337 16.3156 18.1487 15.7619 17.8087 15.3764L17.5091 15.0359C16.246 13.5922 15.5457 11.7342 15.5457 9.80234V9.03125C15.5457 5.85664 13.3191 3.20703 10.3638 2.6V1.8125C10.3638 1.08652 9.78493 0.5 9.06838 0.5ZM10.9023 20.733C11.3881 20.2408 11.6593 19.5723 11.6593 18.875H6.47747C6.47747 19.5723 6.74871 20.2408 7.2345 20.733C7.7203 21.2252 8.38017 21.5 9.06838 21.5C9.75659 21.5 10.4165 21.2252 10.9023 20.733Z" fill="#009E95"/>
</g>
<defs>
<clipPath id="clip0_469_2771">
<rect width="18.1364" height="21" fill="white" transform="translate(0 0.5)"/>
</clipPath>
</defs>
</svg>
