<svg width="29" height="26" viewBox="0 0 29 26" fill="none" xmlns="http://www.w3.org/2000/svg">
<path d="M17.6046 4.33301C18.2271 4.33301 18.8241 4.56128 19.2643 4.96761C19.7045 5.37394 19.9518 5.92504 19.9518 6.49967V7.58301H21.7357C22.0875 7.58305 22.4348 7.65609 22.7519 7.79673C23.069 7.93736 23.3478 8.142 23.5677 8.39551L25.3047 10.4008C25.6381 10.785 25.8198 11.2626 25.8199 11.7549V16.2497C25.8199 16.8243 25.5726 17.3754 25.1324 17.7817C24.6922 18.1881 24.0952 18.4163 23.4727 18.4163C23.4727 19.2783 23.1017 20.1049 22.4414 20.7144C21.7811 21.3239 20.8856 21.6663 19.9518 21.6663C19.018 21.6663 18.1225 21.3239 17.4622 20.7144C16.8019 20.1049 16.431 19.2783 16.431 18.4163H11.7365C11.7365 18.8431 11.6455 19.2658 11.4685 19.6601C11.2916 20.0544 11.0323 20.4126 10.7053 20.7144C10.3784 21.0162 9.99024 21.2556 9.56308 21.419C9.13591 21.5823 8.67807 21.6663 8.21571 21.6663C7.75335 21.6663 7.29551 21.5823 6.86835 21.419C6.44118 21.2556 6.05305 21.0162 5.72611 20.7144C5.39917 20.4126 5.13982 20.0544 4.96289 19.6601C4.78595 19.2658 4.69488 18.8431 4.69488 18.4163C4.07236 18.4163 3.47533 18.1881 3.03514 17.7817C2.59495 17.3754 2.34766 16.8243 2.34766 16.2497V6.49967C2.34766 5.92504 2.59495 5.37394 3.03514 4.96761C3.47533 4.56128 4.07236 4.33301 4.69488 4.33301H17.6046ZM8.21571 17.333C7.90445 17.333 7.60594 17.4471 7.38584 17.6503C7.16575 17.8535 7.0421 18.129 7.0421 18.4163C7.0421 18.7037 7.16575 18.9792 7.38584 19.1824C7.60594 19.3855 7.90445 19.4997 8.21571 19.4997C8.52697 19.4997 8.82548 19.3855 9.04558 19.1824C9.26567 18.9792 9.38932 18.7037 9.38932 18.4163C9.38932 18.129 9.26567 17.8535 9.04558 17.6503C8.82548 17.4471 8.52697 17.333 8.21571 17.333ZM19.9518 17.333C19.6406 17.333 19.342 17.4471 19.122 17.6503C18.9019 17.8535 18.7782 18.129 18.7782 18.4163C18.7782 18.7037 18.9019 18.9792 19.122 19.1824C19.342 19.3855 19.6406 19.4997 19.9518 19.4997C20.2631 19.4997 20.5616 19.3855 20.7817 19.1824C21.0018 18.9792 21.1254 18.7037 21.1254 18.4163C21.1254 18.129 21.0018 17.8535 20.7817 17.6503C20.5616 17.4471 20.2631 17.333 19.9518 17.333ZM17.6046 6.49967H4.69488V16.2497H5.59152C5.90893 15.9213 6.29533 15.656 6.72726 15.4698C7.15918 15.2835 7.62762 15.1803 8.1041 15.1663C8.58059 15.1523 9.05518 15.2279 9.49905 15.3884C9.94292 15.549 10.3468 15.7911 10.6862 16.1002L10.8399 16.2497H17.3276L17.4626 16.1186L17.6046 15.994V6.49967ZM21.7357 9.74967H19.9518V15.1663C20.9142 15.1663 21.7862 15.5238 22.4223 16.1002L22.576 16.2497H23.4727V11.7538L21.7357 9.74967Z" fill="white"/>
<path fill-rule="evenodd" clip-rule="evenodd" d="M14.7071 8.79289C15.0977 9.18342 15.0977 9.81658 14.7071 10.2071L11.2071 13.7071C11.006 13.9082 10.7287 14.0142 10.4447 13.9985C10.1607 13.9827 9.89686 13.8468 9.71917 13.6247L7.71917 11.1247C7.37416 10.6934 7.44408 10.0641 7.87534 9.71913C8.3066 9.37412 8.9359 9.44404 9.28091 9.8753L10.583 11.5029L13.2929 8.79289C13.6835 8.40237 14.3166 8.40237 14.7071 8.79289Z" fill="white"/>
</svg>
