<svg width="28" height="32" viewBox="0 0 28 32" fill="none" xmlns="http://www.w3.org/2000/svg">
<path d="M22.8375 30.49C21.1225 32.1525 19.25 31.89 17.4475 31.1025C15.54 30.2975 13.79 30.2625 11.7775 31.1025C9.25754 32.1875 7.92754 31.8725 6.42254 30.49C-2.11746 21.6875 -0.857457 8.2825 8.83754 7.7925C11.2 7.915 12.845 9.0875 14.2275 9.1925C16.2925 8.7725 18.27 7.565 20.475 7.7225C23.1175 7.9325 25.1125 8.9825 26.425 10.8725C20.965 14.145 22.26 21.3375 27.265 23.35C26.2675 25.975 24.9725 28.5825 22.82 30.5075L22.8375 30.49ZM14.0525 7.6875C13.79 3.785 16.9575 0.565 20.5975 0.25C21.105 4.765 16.5025 8.125 14.0525 7.6875Z" fill="white"/>
</svg>
