<svg width="16" height="16" viewBox="0 0 16 16" fill="none" xmlns="http://www.w3.org/2000/svg">
<path d="M2.66671 2.66675C2.31309 2.66675 1.97395 2.80722 1.7239 3.05727C1.47385 3.30732 1.33337 3.64646 1.33337 4.00008V6.66675C1.687 6.66675 2.02613 6.80722 2.27618 7.05727C2.52623 7.30732 2.66671 7.64646 2.66671 8.00008C2.66671 8.3537 2.52623 8.69284 2.27618 8.94289C2.02613 9.19294 1.687 9.33342 1.33337 9.33342V12.0001C1.33337 12.3537 1.47385 12.6928 1.7239 12.9429C1.97395 13.1929 2.31309 13.3334 2.66671 13.3334H13.3334C13.687 13.3334 14.0261 13.1929 14.2762 12.9429C14.5262 12.6928 14.6667 12.3537 14.6667 12.0001V9.33342C14.3131 9.33342 13.9739 9.19294 13.7239 8.94289C13.4738 8.69284 13.3334 8.3537 13.3334 8.00008C13.3334 7.64646 13.4738 7.30732 13.7239 7.05727C13.9739 6.80722 14.3131 6.66675 14.6667 6.66675V4.00008C14.6667 3.64646 14.5262 3.30732 14.2762 3.05727C14.0261 2.80722 13.687 2.66675 13.3334 2.66675H2.66671ZM10.3334 4.66675L11.3334 5.66675L5.66671 11.3334L4.66671 10.3334L10.3334 4.66675ZM5.87337 4.69341C6.52671 4.69341 7.05337 5.22008 7.05337 5.87341C7.05337 6.18637 6.92905 6.48651 6.70776 6.7078C6.48647 6.92909 6.18633 7.05341 5.87337 7.05341C5.22004 7.05341 4.69337 6.52675 4.69337 5.87341C4.69337 5.56046 4.81769 5.26032 5.03899 5.03903C5.26028 4.81774 5.56042 4.69341 5.87337 4.69341ZM10.1267 8.94675C10.78 8.94675 11.3067 9.47341 11.3067 10.1267C11.3067 10.4397 11.1824 10.7398 10.9611 10.9611C10.7398 11.1824 10.4397 11.3067 10.1267 11.3067C9.47337 11.3067 8.94671 10.7801 8.94671 10.1267C8.94671 9.81379 9.07103 9.51366 9.29232 9.29236C9.51361 9.07107 9.81375 8.94675 10.1267 8.94675Z" fill="white"/>
</svg>
