<svg width="32" height="32" viewBox="0 0 32 32" fill="none" xmlns="http://www.w3.org/2000/svg">
<path d="M4 14.6667C4 9.63867 4 7.124 5.56267 5.56267C7.124 4 9.63867 4 14.6667 4H17.3333C22.3613 4 24.876 4 26.4373 5.56267C28 7.124 28 9.63867 28 14.6667V17.3333C28 22.3613 28 24.876 26.4373 26.4373C24.876 28 22.3613 28 17.3333 28H14.6667C9.63867 28 7.124 28 5.56267 26.4373C4 24.876 4 22.3613 4 17.3333V14.6667Z" stroke="white" stroke-width="2"/>
<path d="M22 12C23.1046 12 24 11.1046 24 10C24 8.89543 23.1046 8 22 8C20.8954 8 20 8.89543 20 10C20 11.1046 20.8954 12 22 12Z" fill="white"/>
<path d="M16 20C18.2091 20 20 18.2091 20 16C20 13.7909 18.2091 12 16 12C13.7909 12 12 13.7909 12 16C12 18.2091 13.7909 20 16 20Z" stroke="white" stroke-width="2"/>
</svg>
