<svg width="24" height="24" viewBox="0 0 24 24" fill="none" xmlns="http://www.w3.org/2000/svg">
<g clip-path="url(#clip0_1398_5439)">
<path d="M4 4C3.73478 4 3.48043 4.10536 3.29289 4.29289C3.10536 4.48043 3 4.73478 3 5C3 5.26522 3.10536 5.51957 3.29289 5.70711C3.48043 5.89464 3.73478 6 4 6H20C20.2652 6 20.5196 5.89464 20.7071 5.70711C20.8946 5.51957 21 5.26522 21 5C21 4.73478 20.8946 4.48043 20.7071 4.29289C20.5196 4.10536 20.2652 4 20 4H4ZM3 12C3 11.7348 3.10536 11.4804 3.29289 11.2929C3.48043 11.1054 3.73478 11 4 11H7C7.26522 11 7.51957 11.1054 7.70711 11.2929C7.89464 11.4804 8 11.7348 8 12C8 12.2652 7.89464 12.5196 7.70711 12.7071C7.51957 12.8946 7.26522 13 7 13H4C3.73478 13 3.48043 12.8946 3.29289 12.7071C3.10536 12.5196 3 12.2652 3 12ZM3 19C3 18.7348 3.10536 18.4804 3.29289 18.2929C3.48043 18.1054 3.73478 18 4 18H8C8.26522 18 8.51957 18.1054 8.70711 18.2929C8.89464 18.4804 9 18.7348 9 19C9 19.2652 8.89464 19.5196 8.70711 19.7071C8.51957 19.8946 8.26522 20 8 20H4C3.73478 20 3.48043 19.8946 3.29289 19.7071C3.10536 19.5196 3 19.2652 3 19ZM10 14C10.0002 13.2204 10.1827 12.4517 10.5329 11.7552C10.8831 11.0587 11.3913 10.4537 12.0169 9.98857C12.6426 9.52346 13.3683 9.21108 14.1361 9.07639C14.904 8.9417 15.6927 8.98843 16.4393 9.21285C17.1859 9.43726 17.8697 9.83315 18.436 10.3689C19.0024 10.9046 19.4356 11.5654 19.7011 12.2984C19.9666 13.0313 20.057 13.8162 19.9652 14.5904C19.8733 15.3646 19.6017 16.1065 19.172 16.757L20.707 18.293C20.8892 18.4816 20.99 18.7342 20.9877 18.9964C20.9854 19.2586 20.8802 19.5094 20.6948 19.6948C20.5094 19.8802 20.2586 19.9854 19.9964 19.9877C19.7342 19.99 19.4816 19.8892 19.293 19.707L17.757 18.172C17.0034 18.6701 16.1288 18.9548 15.2264 18.9957C14.3239 19.0366 13.4272 18.8322 12.6316 18.4043C11.836 17.9764 11.1712 17.3409 10.7078 16.5654C10.2445 15.7899 9.99986 14.9034 10 14ZM15 11C14.606 11 14.2159 11.0776 13.8519 11.2284C13.488 11.3791 13.1573 11.6001 12.8787 11.8787C12.6001 12.1573 12.3791 12.488 12.2284 12.8519C12.0776 13.2159 12 13.606 12 14C12 14.394 12.0776 14.7841 12.2284 15.1481C12.3791 15.512 12.6001 15.8427 12.8787 16.1213C13.1573 16.3999 13.488 16.6209 13.8519 16.7716C14.2159 16.9224 14.606 17 15 17C15.7956 17 16.5587 16.6839 17.1213 16.1213C17.6839 15.5587 18 14.7956 18 14C18 13.2044 17.6839 12.4413 17.1213 11.8787C16.5587 11.3161 15.7956 11 15 11Z" fill="#FF6D00"/>
</g>
<defs>
<clipPath id="clip0_1398_5439">
<rect width="24" height="24" fill="white"/>
</clipPath>
</defs>
</svg>
