<svg width="32" height="32" viewBox="0 0 32 32" fill="none" xmlns="http://www.w3.org/2000/svg">
<path d="M12.0533 28.7201C13.3333 29.1067 14.6266 29.3334 16 29.3334C19.5362 29.3334 22.9276 27.9287 25.428 25.4282C27.9285 22.9277 29.3333 19.5363 29.3333 16.0001C29.3333 14.2491 28.9884 12.5153 28.3184 10.8976C27.6483 9.27996 26.6662 7.81011 25.428 6.57199C24.1899 5.33388 22.7201 4.35175 21.1024 3.68169C19.4847 3.01162 17.7509 2.66675 16 2.66675C14.249 2.66675 12.5152 3.01162 10.8975 3.68169C9.27984 4.35175 7.80998 5.33388 6.57187 6.57199C4.07138 9.07248 2.66663 12.4639 2.66663 16.0001C2.66663 21.6667 6.22663 26.5334 11.2533 28.4534C11.1333 27.4134 11.0133 25.6934 11.2533 24.5067L12.7866 17.9201C12.7866 17.9201 12.4 17.1467 12.4 15.9201C12.4 14.0801 13.5466 12.7067 14.8533 12.7067C16 12.7067 16.5333 13.5467 16.5333 14.6267C16.5333 15.7734 15.7733 17.4134 15.3866 18.9867C15.16 20.2934 16.08 21.4401 17.4133 21.4401C19.7866 21.4401 21.6266 18.9067 21.6266 15.3334C21.6266 12.1334 19.3333 9.94675 16.04 9.94675C12.28 9.94675 10.0666 12.7467 10.0666 15.6934C10.0666 16.8401 10.44 18.0001 11.0533 18.7601C11.1733 18.8401 11.1733 18.9467 11.1333 19.1467L10.7466 20.6001C10.7466 20.8267 10.6 20.9067 10.3733 20.7467C8.66663 20.0001 7.67996 17.5734 7.67996 15.6134C7.67996 11.4001 10.6666 7.57341 16.4266 7.57341C21.0133 7.57341 24.5866 10.8667 24.5866 15.2401C24.5866 19.8267 21.7466 23.5067 17.68 23.5067C16.3866 23.5067 15.12 22.8134 14.6666 22.0001L13.7733 25.1601C13.4666 26.3067 12.6266 27.8401 12.0533 28.7601V28.7201Z" fill="white"/>
</svg>
