<svg width="16" height="16" viewBox="0 0 16 16" fill="none" xmlns="http://www.w3.org/2000/svg">
<path d="M3.99996 2.66659H2.66663V1.33325H13.3333V2.66659H12V3.99992C12 5.07659 11.456 5.94325 10.7706 6.65125C10.302 7.13525 9.73196 7.58125 9.15396 7.99992C9.73196 8.41858 10.302 8.86458 10.7706 9.34858C11.456 10.0566 12 10.9233 12 11.9999V13.3333H13.3333V14.6666H2.66663V13.3333H3.99996V11.9999C3.99996 10.9233 4.54396 10.0566 5.22929 9.34858C5.69796 8.86458 6.26796 8.41858 6.84596 7.99992C6.26796 7.58125 5.69796 7.13525 5.22929 6.65125C4.54396 5.94325 3.99996 5.07659 3.99996 3.99992V2.66659ZM5.33329 2.66659V3.99992C5.33329 4.45659 5.50663 4.88992 5.84729 5.33325H10.1526C10.4926 4.88992 10.6666 4.45659 10.6666 3.99992V2.66659H5.33329ZM7.99996 8.81458C7.30329 9.30658 6.67196 9.77525 6.18729 10.2759C6.06682 10.3997 5.95331 10.5302 5.84729 10.6666H10.1526C10.0466 10.5302 9.9331 10.3997 9.81263 10.2759C9.32796 9.77525 8.69663 9.30658 7.99996 8.81458Z" fill="white"/>
</svg>
