<svg width="32" height="32" viewBox="0 0 32 32" fill="none" xmlns="http://www.w3.org/2000/svg">
<path d="M16 5.33337C17.4145 5.33337 18.7711 5.89528 19.7712 6.89547C20.7714 7.89567 21.3333 9.25222 21.3333 10.6667C21.3333 12.0812 20.7714 13.4378 19.7712 14.4379C18.7711 15.4381 17.4145 16 16 16C14.5855 16 13.229 15.4381 12.2288 14.4379C11.2286 13.4378 10.6667 12.0812 10.6667 10.6667C10.6667 9.25222 11.2286 7.89567 12.2288 6.89547C13.229 5.89528 14.5855 5.33337 16 5.33337ZM16 8.00004C15.2928 8.00004 14.6145 8.28099 14.1144 8.78109C13.6143 9.28119 13.3333 9.95946 13.3333 10.6667C13.3333 11.374 13.6143 12.0522 14.1144 12.5523C14.6145 13.0524 15.2928 13.3334 16 13.3334C16.7073 13.3334 17.3855 13.0524 17.8856 12.5523C18.3857 12.0522 18.6667 11.374 18.6667 10.6667C18.6667 9.95946 18.3857 9.28119 17.8856 8.78109C17.3855 8.28099 16.7073 8.00004 16 8.00004ZM16 17.3334C19.56 17.3334 26.6667 19.1067 26.6667 22.6667V26.6667H5.33334V22.6667C5.33334 19.1067 12.44 17.3334 16 17.3334ZM16 19.8667C12.04 19.8667 7.86668 21.8134 7.86668 22.6667V24.1334H24.1333V22.6667C24.1333 21.8134 19.96 19.8667 16 19.8667Z" fill="#4A4949"/>
</svg>
