<svg width="32" height="32" viewBox="0 0 32 32" fill="none" xmlns="http://www.w3.org/2000/svg">
<g clip-path="url(#clip0_1398_5423)">
<path d="M5.33333 5.33337C4.97971 5.33337 4.64057 5.47385 4.39052 5.7239C4.14048 5.97395 4 6.31309 4 6.66671C4 7.02033 4.14048 7.35947 4.39052 7.60952C4.64057 7.85956 4.97971 8.00004 5.33333 8.00004H26.6667C27.0203 8.00004 27.3594 7.85956 27.6095 7.60952C27.8595 7.35947 28 7.02033 28 6.66671C28 6.31309 27.8595 5.97395 27.6095 5.7239C27.3594 5.47385 27.0203 5.33337 26.6667 5.33337H5.33333ZM4 16C4 15.6464 4.14048 15.3073 4.39052 15.0572C4.64057 14.8072 4.97971 14.6667 5.33333 14.6667H9.33333C9.68696 14.6667 10.0261 14.8072 10.2761 15.0572C10.5262 15.3073 10.6667 15.6464 10.6667 16C10.6667 16.3537 10.5262 16.6928 10.2761 16.9428C10.0261 17.1929 9.68696 17.3334 9.33333 17.3334H5.33333C4.97971 17.3334 4.64057 17.1929 4.39052 16.9428C4.14048 16.6928 4 16.3537 4 16ZM4 25.3334C4 24.9798 4.14048 24.6406 4.39052 24.3906C4.64057 24.1405 4.97971 24 5.33333 24H10.6667C11.0203 24 11.3594 24.1405 11.6095 24.3906C11.8595 24.6406 12 24.9798 12 25.3334C12 25.687 11.8595 26.0261 11.6095 26.2762C11.3594 26.5262 11.0203 26.6667 10.6667 26.6667H5.33333C4.97971 26.6667 4.64057 26.5262 4.39052 26.2762C4.14048 26.0261 4 25.687 4 25.3334ZM13.3333 18.6667C13.3336 17.6273 13.5769 16.6023 14.0438 15.6736C14.5107 14.7449 15.1884 13.9383 16.0226 13.3181C16.8567 12.698 17.8244 12.2815 18.8482 12.1019C19.872 11.9223 20.9236 11.9846 21.9191 12.2838C22.9146 12.5831 23.8262 13.1109 24.5814 13.8252C25.3365 14.5395 25.9141 15.4205 26.2681 16.3978C26.6221 17.3752 26.7427 18.4217 26.6202 19.4539C26.4977 20.4861 26.1356 21.4754 25.5627 22.3427L27.6093 24.3907C27.8522 24.6422 27.9866 24.979 27.9836 25.3286C27.9805 25.6782 27.8403 26.0126 27.5931 26.2598C27.3459 26.507 27.0115 26.6472 26.6619 26.6503C26.3123 26.6533 25.9755 26.5189 25.724 26.276L23.676 24.2294C22.6711 24.8935 21.5051 25.2731 20.3018 25.3276C19.0986 25.3821 17.903 25.1097 16.8422 24.5391C15.7814 23.9686 14.8949 23.1213 14.2771 22.0873C13.6593 21.0533 13.3331 19.8712 13.3333 18.6667ZM20 14.6667C19.4747 14.6667 18.9546 14.7702 18.4693 14.9712C17.984 15.1722 17.543 15.4668 17.1716 15.8383C16.8001 16.2097 16.5055 16.6507 16.3045 17.136C16.1035 17.6213 16 18.1414 16 18.6667C16 19.192 16.1035 19.7121 16.3045 20.1974C16.5055 20.6827 16.8001 21.1237 17.1716 21.4951C17.543 21.8666 17.984 22.1612 18.4693 22.3622C18.9546 22.5632 19.4747 22.6667 20 22.6667C21.0609 22.6667 22.0783 22.2453 22.8284 21.4951C23.5786 20.745 24 19.7276 24 18.6667C24 17.6058 23.5786 16.5884 22.8284 15.8383C22.0783 15.0881 21.0609 14.6667 20 14.6667Z" fill="#FF6D00"/>
</g>
<defs>
<clipPath id="clip0_1398_5423">
<rect width="32" height="32" fill="white"/>
</clipPath>
</defs>
</svg>
