<svg width="32" height="32" viewBox="0 0 32 32" fill="none" xmlns="http://www.w3.org/2000/svg">
<path d="M30.1937 8.0925C30.0539 7.90843 29.8734 7.75918 29.6663 7.6564C29.4592 7.55362 29.2312 7.50009 29 7.5H7.52875L6.445 3.59875C6.3573 3.28286 6.16854 3.00441 5.90758 2.80598C5.64662 2.60755 5.32783 2.50007 5 2.5H2.5C2.10218 2.5 1.72064 2.65804 1.43934 2.93934C1.15804 3.22064 1 3.60218 1 4C1 4.39782 1.15804 4.77936 1.43934 5.06066C1.72064 5.34196 2.10218 5.5 2.5 5.5H3.86L8.1475 20.9363C8.35394 21.6729 8.79534 22.322 9.40455 22.7848C10.0138 23.2476 10.7575 23.4987 11.5225 23.5H23.875C24.64 23.4987 25.3837 23.2476 25.9929 22.7848C26.6022 22.322 27.0436 21.6729 27.25 20.9363L30.4537 9.40125C30.5143 9.17783 30.5224 8.94342 30.4773 8.71637C30.4322 8.48932 30.3351 8.27579 30.1937 8.0925ZM24.35 20.1338C24.3211 20.238 24.2592 20.33 24.1735 20.396C24.0879 20.462 23.9831 20.4985 23.875 20.5H11.52C11.4108 20.4999 11.3046 20.464 11.2177 20.3979C11.1308 20.3317 11.068 20.239 11.0387 20.1338L8.3625 10.5H27.0262L24.35 20.1338ZM13.5 27.5C13.5 27.9945 13.3534 28.4778 13.0787 28.8889C12.804 29.3 12.4135 29.6205 11.9567 29.8097C11.4999 29.9989 10.9972 30.0484 10.5123 29.952C10.0273 29.8555 9.58186 29.6174 9.23223 29.2678C8.8826 28.9181 8.6445 28.4727 8.54804 27.9877C8.45157 27.5028 8.50108 27.0001 8.6903 26.5433C8.87952 26.0865 9.19995 25.696 9.61107 25.4213C10.0222 25.1466 10.5055 25 11 25C11.663 25 12.2989 25.2634 12.7678 25.7322C13.2366 26.2011 13.5 26.837 13.5 27.5ZM26.5 27.5C26.5 27.9945 26.3534 28.4778 26.0787 28.8889C25.804 29.3 25.4135 29.6205 24.9567 29.8097C24.4999 29.9989 23.9972 30.0484 23.5123 29.952C23.0273 29.8555 22.5819 29.6174 22.2322 29.2678C21.8826 28.9181 21.6445 28.4727 21.548 27.9877C21.4516 27.5028 21.5011 27.0001 21.6903 26.5433C21.8795 26.0865 22.2 25.696 22.6111 25.4213C23.0222 25.1466 23.5055 25 24 25C24.663 25 25.2989 25.2634 25.7678 25.7322C26.2366 26.2011 26.5 26.837 26.5 27.5Z" fill="#4A4949"/>
</svg>
