<svg width="32" height="32" viewBox="0 0 32 32" fill="none" xmlns="http://www.w3.org/2000/svg">
<path d="M18.6667 16.0002L14 18.6668V13.3335L18.6667 16.0002Z" fill="white" stroke="white" stroke-width="1.5" stroke-linecap="round" stroke-linejoin="round"/>
<path d="M2.66663 16.9441V15.0561C2.66663 11.1961 2.66663 9.26545 3.87329 8.02411C5.08129 6.78145 6.98263 6.72811 10.784 6.62011C12.584 6.56945 14.424 6.53345 16 6.53345C17.576 6.53345 19.4146 6.56945 21.216 6.62011C25.0173 6.72811 26.9186 6.78145 28.1253 8.02411C29.332 9.26678 29.3333 11.1974 29.3333 15.0561V16.9428C29.3333 20.8041 29.3333 22.7334 28.1266 23.9761C26.9186 25.2174 25.0186 25.2721 21.216 25.3788C19.416 25.4308 17.576 25.4668 16 25.4668C14.424 25.4668 12.5853 25.4308 10.784 25.3788C6.98263 25.2721 5.08129 25.2188 3.87329 23.9761C2.66529 22.7334 2.66663 20.8028 2.66663 16.9441Z" stroke="white" stroke-width="1.5"/>
</svg>
