<svg width="30" height="30" viewBox="0 0 30 30" fill="none" xmlns="http://www.w3.org/2000/svg">
<path d="M27.9912 11.8185H26.9844V11.7666H15.7344V16.7666H22.7988C21.7681 19.6772 18.9987 21.7666 15.7344 21.7666C11.5925 21.7666 8.23438 18.4085 8.23438 14.2666C8.23438 10.1247 11.5925 6.7666 15.7344 6.7666C17.6462 6.7666 19.3856 7.48785 20.71 8.66598L24.2456 5.13035C22.0131 3.04973 19.0269 1.7666 15.7344 1.7666C8.83125 1.7666 3.23438 7.36348 3.23438 14.2666C3.23438 21.1697 8.83125 26.7666 15.7344 26.7666C22.6375 26.7666 28.2344 21.1697 28.2344 14.2666C28.2344 13.4285 28.1481 12.6104 27.9912 11.8185Z" fill="#FFC107"/>
<path d="M4.67578 8.44848L8.78266 11.4604C9.89391 8.7091 12.5852 6.7666 15.7345 6.7666C17.6464 6.7666 19.3858 7.48785 20.7102 8.66598L24.2458 5.13035C22.0133 3.04973 19.027 1.7666 15.7345 1.7666C10.9333 1.7666 6.76953 4.47723 4.67578 8.44848Z" fill="#FF3D00"/>
<path d="M15.7336 26.7665C18.9623 26.7665 21.8961 25.5309 24.1142 23.5215L20.2455 20.2478C18.9483 21.2343 17.3633 21.7678 15.7336 21.7665C12.4823 21.7665 9.72172 19.6934 8.68172 16.8003L4.60547 19.9409C6.67422 23.989 10.8755 26.7665 15.7336 26.7665Z" fill="#4CAF50"/>
<path d="M27.9913 11.8185H26.9844V11.7666H15.7344V16.7666H22.7988C22.3058 18.1519 21.4177 19.3623 20.2444 20.2485L20.2463 20.2472L24.115 23.521C23.8413 23.7697 28.2344 20.5166 28.2344 14.2666C28.2344 13.4285 28.1481 12.6104 27.9913 11.8185Z" fill="#1976D2"/>
</svg>
