<svg width="24" height="24" viewBox="0 0 24 24" fill="none" xmlns="http://www.w3.org/2000/svg">
<path d="M17.5624 21.56C17.4004 21.5598 17.2408 21.5204 17.0974 21.445L12.0004 18.765L6.90337 21.445C6.73823 21.5319 6.55208 21.5707 6.36598 21.5573C6.17989 21.5439 6.00126 21.4786 5.8503 21.369C5.69935 21.2593 5.58208 21.1096 5.51175 20.9368C5.44143 20.764 5.42086 20.5749 5.45237 20.391L6.42537 14.715L2.30237 10.695C2.16896 10.5648 2.07463 10.3998 2.03002 10.2188C1.98541 10.0377 1.9923 9.84782 2.04992 9.67049C2.10754 9.49316 2.21359 9.33548 2.35609 9.21524C2.4986 9.09499 2.67188 9.01699 2.85637 8.99003L8.55537 8.16203L11.1034 2.99803C11.1955 2.84213 11.3267 2.71295 11.484 2.6232C11.6413 2.53346 11.8193 2.48627 12.0004 2.48627C12.1815 2.48627 12.3594 2.53346 12.5167 2.6232C12.674 2.71295 12.8052 2.84213 12.8974 2.99803L15.4454 8.16203L21.1444 8.99003C21.3291 9.01685 21.5026 9.09482 21.6453 9.21513C21.788 9.33544 21.8941 9.49328 21.9518 9.67079C22.0094 9.8483 22.0162 10.0384 21.9715 10.2196C21.9267 10.4008 21.8321 10.5658 21.6984 10.696L17.5754 14.715L18.5484 20.391C18.573 20.5346 18.5659 20.6818 18.5277 20.8224C18.4895 20.9629 18.4211 21.0934 18.3272 21.2048C18.2332 21.3161 18.1161 21.4056 17.984 21.467C17.8519 21.5283 17.708 21.5601 17.5624 21.56Z" fill="black"/>
</svg>
