<svg width="28" height="27" viewBox="0 0 28 27" fill="none" xmlns="http://www.w3.org/2000/svg">
<g clip-path="url(#clip0_240_1741)">
<path d="M13.1091 12.8718L0.611816 24.7161C0.75216 25.166 1.00436 25.5809 1.34914 25.9291C1.69392 26.2773 2.12216 26.5496 2.6011 26.7252C3.08005 26.9008 3.59703 26.9749 4.11253 26.9421C4.62803 26.9092 5.1284 26.7702 5.57539 26.5355L19.6372 19.291L13.1091 12.8718Z" fill="#EA4335"/>
<path d="M25.7461 10.8585L19.6653 7.70776L12.8206 13.1412L19.6931 19.2739L25.7276 16.157C26.2622 15.9037 26.71 15.523 27.0224 15.056C27.3348 14.589 27.5 14.0535 27.5 13.5077C27.5 12.9618 27.3348 12.4263 27.0224 11.9593C26.71 11.4923 26.2622 11.1116 25.7276 10.8584L25.7461 10.8585Z" fill="#FBBC04"/>
<path d="M0.611829 2.24072C0.536334 2.49335 0.498732 2.75401 0.500033 3.01571V23.9409C0.500778 24.2025 0.538346 24.463 0.611829 24.716L13.5376 13.1751L0.611829 2.24072Z" fill="#4285F4"/>
<path d="M13.2023 13.4784L19.6652 7.70798L5.622 0.429621C5.09363 0.149718 4.4927 0.00148125 3.8804 5.8513e-06C2.36091 -0.00266553 1.02504 0.90961 0.611816 2.23242L13.2023 13.4784Z" fill="#34A853"/>
</g>
<defs>
<clipPath id="clip0_240_1741">
<rect width="27" height="27" fill="white" transform="translate(0.5)"/>
</clipPath>
</defs>
</svg>
