<svg width="16" height="16" viewBox="0 0 16 16" fill="none" xmlns="http://www.w3.org/2000/svg">
<path d="M9 5.5C9 6.69347 8.52589 7.83807 7.68198 8.68198C6.83807 9.52589 5.69347 10 4.5 10C3.30653 10 2.16193 9.52589 1.31802 8.68198C0.474106 7.83807 0 6.69347 0 5.5C0 4.30653 0.474106 3.16193 1.31802 2.31802C2.16193 1.47411 3.30653 1 4.5 1C5.69347 1 6.83807 1.47411 7.68198 2.31802C8.52589 3.16193 9 4.30653 9 5.5ZM4.5 3C4.36739 3 4.24021 3.05268 4.14645 3.14645C4.05268 3.24021 4 3.36739 4 3.5V5.5C4 5.63261 4.05268 5.75979 4.14645 5.85355C4.24021 5.94732 4.36739 6 4.5 6H6C6.13261 6 6.25979 5.94732 6.35355 5.85355C6.44732 5.75979 6.5 5.63261 6.5 5.5C6.5 5.36739 6.44732 5.24021 6.35355 5.14645C6.25979 5.05268 6.13261 5 6 5H5V3.5C5 3.36739 4.94732 3.24021 4.85355 3.14645C4.75979 3.05268 4.63261 3 4.5 3ZM4.5 11C6.43 11 8.13 10.005 9.11 8.5H11.533L10.623 6.794C10.4751 6.51669 10.2439 6.29282 9.962 6.154C10.0031 5.80252 10.0108 5.44793 9.985 5.095C10.3078 5.18714 10.6088 5.34336 10.8699 5.55434C11.1311 5.76532 11.3471 6.02674 11.505 6.323L12.641 8.452L14.338 9.056C14.8241 9.22893 15.2447 9.54801 15.5423 9.96946C15.8398 10.3909 15.9997 10.8941 16 11.41V11.749C16 12.459 15.578 13.069 14.97 13.344C14.8914 13.7944 14.6609 14.2042 14.3168 14.5053C13.9727 14.8063 13.5359 14.9804 13.0791 14.9986C12.6222 15.0167 12.173 14.8777 11.8062 14.6049C11.4393 14.332 11.177 13.9417 11.063 13.499H6.937C6.82296 13.9417 6.56068 14.332 6.19384 14.6049C5.82701 14.8777 5.37776 15.0167 4.92093 14.9986C4.46411 14.9804 4.02728 14.8063 3.68321 14.5053C3.33914 14.2042 3.10861 13.7944 3.03 13.344C2.7232 13.2055 2.46285 12.9815 2.28016 12.6987C2.09747 12.416 2.0002 12.0866 2 11.75V10.636C2 10.5587 2.00333 10.482 2.01 10.406C2.758 10.786 3.604 11 4.5 11ZM4 13C4 13.2652 4.10536 13.5196 4.29289 13.7071C4.48043 13.8946 4.73478 14 5 14C5.26522 14 5.51957 13.8946 5.70711 13.7071C5.89464 13.5196 6 13.2652 6 13C6 12.7348 5.89464 12.4804 5.70711 12.2929C5.51957 12.1054 5.26522 12 5 12C4.73478 12 4.48043 12.1054 4.29289 12.2929C4.10536 12.4804 4 12.7348 4 13ZM13 12C12.7348 12 12.4804 12.1054 12.2929 12.2929C12.1054 12.4804 12 12.7348 12 13C12 13.2652 12.1054 13.5196 12.2929 13.7071C12.4804 13.8946 12.7348 14 13 14C13.2652 14 13.5196 13.8946 13.7071 13.7071C13.8946 13.5196 14 13.2652 14 13C14 12.7348 13.8946 12.4804 13.7071 12.2929C13.5196 12.1054 13.2652 12 13 12Z" fill="white"/>
</svg>
