<svg width="40" height="40" viewBox="0 0 40 40" fill="none" xmlns="http://www.w3.org/2000/svg">
<g clip-path="url(#clip0_629_5707)">
<path d="M27.9548 0.0200175C27.8698 -0.0749825 24.8073 0.0575176 22.1423 2.95002C19.4773 5.84002 19.8873 9.15502 19.9473 9.24002C20.0073 9.32502 23.7473 9.45752 26.1348 6.09502C28.5223 2.73252 28.0398 0.117518 27.9548 0.0200175ZM36.2398 29.3525C36.1198 29.1125 30.4273 26.2675 30.9573 20.7975C31.4873 15.3275 35.1448 13.825 35.2023 13.6625C35.2598 13.5 33.7098 11.6875 32.0673 10.77C30.8611 10.1238 29.5265 9.7532 28.1598 9.68502C27.8898 9.67752 26.9523 9.44752 25.0248 9.97502C23.7548 10.3225 20.8923 11.4475 20.1048 11.4925C19.3148 11.5375 16.9648 10.1875 14.4373 9.83002C12.8198 9.51752 11.1048 10.1575 9.87731 10.65C8.65231 11.14 6.32231 12.535 4.69231 16.2425C3.06231 19.9475 3.91481 25.8175 4.52481 27.6425C5.13481 29.4675 6.08731 32.4525 7.70731 34.6325C9.14731 37.0925 11.0573 38.8 11.8548 39.38C12.6523 39.96 14.9023 40.345 16.4623 39.5475C17.7173 38.7775 19.9823 38.335 20.8773 38.3675C21.7698 38.4 23.5298 38.7525 25.3323 39.715C26.7598 40.2075 28.1098 40.0025 29.4623 39.4525C30.8148 38.9 32.7723 36.805 35.0573 32.5575C35.924 30.5825 36.3181 29.5142 36.2398 29.3525Z" fill="black"/>
<path d="M27.9548 0.0200175C27.8698 -0.0749825 24.8073 0.0575176 22.1423 2.95002C19.4773 5.84002 19.8873 9.15502 19.9473 9.24002C20.0073 9.32502 23.7473 9.45752 26.1348 6.09502C28.5223 2.73252 28.0398 0.117518 27.9548 0.0200175ZM36.2398 29.3525C36.1198 29.1125 30.4273 26.2675 30.9573 20.7975C31.4873 15.3275 35.1448 13.825 35.2023 13.6625C35.2598 13.5 33.7098 11.6875 32.0673 10.77C30.8611 10.1238 29.5265 9.7532 28.1598 9.68502C27.8898 9.67752 26.9523 9.44752 25.0248 9.97502C23.7548 10.3225 20.8923 11.4475 20.1048 11.4925C19.3148 11.5375 16.9648 10.1875 14.4373 9.83002C12.8198 9.51752 11.1048 10.1575 9.87731 10.65C8.65231 11.14 6.32231 12.535 4.69231 16.2425C3.06231 19.9475 3.91481 25.8175 4.52481 27.6425C5.13481 29.4675 6.08731 32.4525 7.70731 34.6325C9.14731 37.0925 11.0573 38.8 11.8548 39.38C12.6523 39.96 14.9023 40.345 16.4623 39.5475C17.7173 38.7775 19.9823 38.335 20.8773 38.3675C21.7698 38.4 23.5298 38.7525 25.3323 39.715C26.7598 40.2075 28.1098 40.0025 29.4623 39.4525C30.8148 38.9 32.7723 36.805 35.0573 32.5575C35.924 30.5825 36.3181 29.5142 36.2398 29.3525Z" fill="black"/>
</g>
<defs>
<clipPath id="clip0_629_5707">
<rect width="40" height="40" fill="white"/>
</clipPath>
</defs>
</svg>
