<svg width="9" height="12" viewBox="0 0 9 12" fill="none" xmlns="http://www.w3.org/2000/svg">
<path d="M4.2145 11.6458C3.40046 11.6458 2.60521 11.4011 1.93186 10.9437C1.25852 10.4862 0.738136 9.83701 0.438185 9.08025C0.138235 8.32348 0.072551 7.49405 0.249651 6.69951C0.426751 5.90497 0.838466 5.18195 1.43141 4.62421C2.15833 3.94008 3.94366 2.70833 3.67283 0C6.92283 2.16667 8.54783 4.33333 5.29783 7.58333C5.8395 7.58333 6.652 7.58333 8.00617 6.24542C8.15242 6.66412 8.277 7.11425 8.277 7.58333C8.277 8.66077 7.84899 9.69409 7.08712 10.456C6.32525 11.2178 5.29194 11.6458 4.2145 11.6458Z" fill="#FF6D00"/>
</svg>
