<svg width="17" height="16" viewBox="0 0 17 16" fill="none" xmlns="http://www.w3.org/2000/svg">
<path d="M14.1128 8.11293L14.1161 8.11237L12.1995 9.82664L11.9799 10.0231L12.0454 10.3103L13.0252 14.6125L13.0256 14.6142C13.0582 14.755 13.0497 14.9026 13.0016 15.0377C12.9536 15.1728 12.8691 15.2872 12.7614 15.3683C12.654 15.4493 12.5279 15.4941 12.3992 15.4995C12.2707 15.5048 12.1422 15.4708 12.0298 15.3996C12.0296 15.3995 12.0295 15.3994 12.0293 15.3993L8.42141 13.0976L8.15257 12.9261L7.88368 13.0975L4.27458 15.3987C4.27427 15.3989 4.27395 15.399 4.27364 15.3992C4.16131 15.4698 4.03322 15.5034 3.90512 15.4978C3.77663 15.4923 3.6508 15.4474 3.5436 15.3665C3.43617 15.2854 3.35177 15.1712 3.30378 15.0364C3.25575 14.9015 3.24715 14.7541 3.27949 14.6136L3.27965 14.6129L4.26308 10.3107L4.3288 10.0232L4.109 9.82664L0.893139 6.95015C0.791686 6.85926 0.716116 6.7373 0.678574 6.5982C0.641008 6.45902 0.643869 6.31115 0.686664 6.17383C0.729425 6.03662 0.809413 5.9182 0.913917 5.83183C1.01777 5.74601 1.14151 5.69525 1.26943 5.68325L5.48401 5.33078L5.79226 5.30501L5.9068 5.01767L7.53346 0.937015L7.53389 0.935924C7.58646 0.803145 7.67478 0.692461 7.78489 0.615928C7.89476 0.53956 8.02206 0.5 8.1507 0.5C8.27934 0.5 8.40664 0.53956 8.51651 0.615928C8.62662 0.692461 8.71494 0.803145 8.76751 0.935924L8.76791 0.936945L10.3939 5.0176L10.5084 5.305L10.8167 5.33078L15.0314 5.68326C15.0317 5.68329 15.032 5.68331 15.0323 5.68334C15.1607 5.69477 15.2851 5.74526 15.3895 5.83112C15.4943 5.91735 15.5747 6.03579 15.6177 6.17316L16.0948 6.02372L15.6177 6.17317C15.6608 6.31064 15.6638 6.45877 15.6262 6.59821L16.109 6.72827L15.6262 6.59822C15.5887 6.73757 15.513 6.85974 15.4113 6.95073L14.1128 8.11293Z" fill="white" stroke="#4A4949"/>
</svg>
