<svg width="45" height="35" viewBox="0 0 45 35" fill="none" xmlns="http://www.w3.org/2000/svg">
<rect x="0.5" y="0.5" width="44" height="34" rx="7.5" fill="#038B83" stroke="#038B83"/>
<path d="M32.6453 11.0694C32.5404 10.9313 32.405 10.8194 32.2497 10.7423C32.0944 10.6652 31.9234 10.6251 31.75 10.625H15.6466L14.8337 7.69906C14.768 7.46215 14.6264 7.2533 14.4307 7.10448C14.235 6.95566 13.9959 6.87506 13.75 6.875H11.875C11.5766 6.875 11.2905 6.99353 11.0795 7.2045C10.8685 7.41548 10.75 7.70163 10.75 8C10.75 8.29837 10.8685 8.58452 11.0795 8.7955C11.2905 9.00647 11.5766 9.125 11.875 9.125H12.895L16.1106 20.7022C16.2655 21.2547 16.5965 21.7415 17.0534 22.0886C17.5103 22.4357 18.0681 22.624 18.6419 22.625H27.9062C28.48 22.624 29.0378 22.4357 29.4947 22.0886C29.9516 21.7415 30.2827 21.2547 30.4375 20.7022L32.8403 12.0509C32.8858 11.8834 32.8918 11.7076 32.858 11.5373C32.8241 11.367 32.7514 11.2068 32.6453 11.0694ZM28.2625 20.1003C28.2408 20.1785 28.1944 20.2475 28.1301 20.297C28.0659 20.3465 27.9873 20.3739 27.9062 20.375H18.64C18.5581 20.3749 18.4785 20.348 18.4133 20.2984C18.3481 20.2488 18.301 20.1792 18.2791 20.1003L16.2719 12.875H30.2697L28.2625 20.1003ZM20.125 25.625C20.125 25.9958 20.015 26.3584 19.809 26.6667C19.603 26.975 19.3101 27.2154 18.9675 27.3573C18.6249 27.4992 18.2479 27.5363 17.8842 27.464C17.5205 27.3916 17.1864 27.213 16.9242 26.9508C16.662 26.6886 16.4834 26.3545 16.411 25.9908C16.3387 25.6271 16.3758 25.2501 16.5177 24.9075C16.6596 24.5649 16.9 24.272 17.2083 24.066C17.5166 23.86 17.8792 23.75 18.25 23.75C18.7473 23.75 19.2242 23.9475 19.5758 24.2992C19.9275 24.6508 20.125 25.1277 20.125 25.625ZM29.875 25.625C29.875 25.9958 29.765 26.3584 29.559 26.6667C29.353 26.975 29.0601 27.2154 28.7175 27.3573C28.3749 27.4992 27.9979 27.5363 27.6342 27.464C27.2705 27.3916 26.9364 27.213 26.6742 26.9508C26.412 26.6886 26.2334 26.3545 26.161 25.9908C26.0887 25.6271 26.1258 25.2501 26.2677 24.9075C26.4096 24.5649 26.65 24.272 26.9583 24.066C27.2666 23.86 27.6292 23.75 28 23.75C28.4973 23.75 28.9742 23.9475 29.3258 24.2992C29.6775 24.6508 29.875 25.1277 29.875 25.625Z" fill="white"/>
</svg>
