<svg width="45" height="37" viewBox="0 0 45 37" fill="none" xmlns="http://www.w3.org/2000/svg">
<path d="M5.33389 33.5545H2.64011V36.2161H0V26.4275H5.33389C7.54472 26.4275 8.69306 28.1232 8.69306 29.9906C8.69306 31.858 7.54472 33.5545 5.33389 33.5545ZM4.71142 31.3858C5.51634 31.3858 6.05295 30.8277 6.05295 29.9906C6.05295 29.1535 5.51634 28.5954 4.71142 28.5954H2.64011V31.3858H4.71142Z" fill="#FF6D00"/>
<path d="M12.4707 33.5545V36.2161H9.83057V26.4275H15.1645C17.3753 26.4275 18.5236 28.1232 18.5236 29.9906C18.5236 31.2033 18.0407 32.3516 17.0962 32.9956L18.6953 36.2152H15.9801L14.6278 33.5537H12.4707V33.5545ZM14.542 31.3858C15.3469 31.3858 15.8835 30.8277 15.8835 29.9906C15.8835 29.1535 15.3469 28.5954 14.542 28.5954H12.4707V31.3858H14.542Z" fill="#FF6D00"/>
<path d="M19.6184 36.2161V26.4275H22.2585V36.2152H19.6184V36.2161Z" fill="#FF6D00"/>
<path d="M23.8254 28.853C23.8254 27.2646 24.5767 26.2129 26.0363 26.2129C27.2275 26.2129 28.2256 26.9319 28.4725 28.2091L29.492 33.5966H29.5993L30.6189 28.2091C30.8657 26.9319 31.8638 26.2129 33.0551 26.2129C34.5147 26.2129 35.2659 27.2646 35.2659 28.853V36.226H32.8405V29.0569H32.7546L31.7351 34.4445C31.4882 35.7216 30.737 36.4407 29.5457 36.4407C28.3544 36.4407 27.6032 35.7216 27.3563 34.4445L26.3368 29.0569H26.2509V36.226H23.8254V28.853Z" fill="#FF6D00"/>
<path d="M40.1168 34.0054H44.9999V36.2162H39.1938C37.7772 36.2162 36.8328 35.2718 36.8328 33.8551V26.4285H44.9999V28.6393H39.4729V30.1311H44.8926V32.299H39.4729V33.3614C39.4729 33.7478 39.7304 34.0054 40.1168 34.0054Z" fill="#FF6D00"/>
<path d="M10.3194 9.15869H3.67456V11.2482H10.1972C10.1948 11.1417 10.1931 11.0352 10.1931 10.9287C10.1931 10.3318 10.236 9.74071 10.3194 9.15869Z" fill="#FF6D00"/>
<path d="M2.43628 12.4065V14.496H10.7182C10.5118 13.8132 10.3657 13.1156 10.2815 12.4065H2.43628Z" fill="#FF6D00"/>
<path d="M11.1541 15.7078H3.67456V17.7972H12.2801C11.845 17.1484 11.4719 16.459 11.1648 15.7325C11.1615 15.7243 11.1582 15.716 11.1541 15.7078Z" fill="#FF6D00"/>
<path d="M34.868 11.2482H41.3263V9.15869H34.7458C34.8292 9.74153 34.8722 10.3318 34.8722 10.9287C34.8722 11.0352 34.8705 11.1417 34.868 11.2482Z" fill="#FF6D00"/>
<path d="M42.5639 14.496V12.4065H34.7839C34.6997 13.1156 34.5536 13.8132 34.3472 14.496H42.5639Z" fill="#FF6D00"/>
<path d="M32.7852 17.7972H41.3255V15.7078H33.9104C33.9071 15.716 33.9038 15.7243 33.9005 15.7325C33.5934 16.459 33.2202 17.1492 32.7852 17.7972Z" fill="#FF6D00"/>
<path d="M22.5328 2.86136C26.9883 2.86136 30.6 6.47315 30.6 10.9287C30.6 15.3842 26.9883 18.9959 22.5328 18.9959C18.0772 18.9959 14.4655 15.3842 14.4655 10.9287C14.4655 6.47315 18.0772 2.86136 22.5328 2.86136ZM22.5328 0C21.0583 0 19.6268 0.288943 18.2779 0.860225C16.976 1.41087 15.8078 2.19844 14.8048 3.20149C13.8017 4.20453 13.0141 5.37269 12.4635 6.67459C11.893 8.02354 11.6033 9.45504 11.6033 10.9295C11.6033 12.4039 11.8922 13.8354 12.4635 15.1844C13.0141 16.4863 13.8017 17.6544 14.8048 18.6575C15.8078 19.6605 16.976 20.4481 18.2779 20.9987C19.6268 21.5692 21.0583 21.859 22.5328 21.859C24.0072 21.859 25.4387 21.57 26.7876 20.9987C28.0895 20.4481 29.2577 19.6605 30.2607 18.6575C31.2638 17.6544 32.0514 16.4863 32.602 15.1844C33.1725 13.8354 33.4622 12.4039 33.4622 10.9295C33.4622 9.45504 33.1733 8.02354 32.602 6.67459C32.0514 5.37269 31.2638 4.20453 30.2607 3.20149C29.2577 2.19844 28.0895 1.41087 26.7876 0.860225C25.4379 0.288943 24.0064 0 22.5328 0Z" fill="#FF6D00"/>
<path d="M24.0219 13.142H21.4255V15.7078H18.8804V6.27344H24.0219C26.1527 6.27344 27.2597 7.90803 27.2597 9.70773C27.2597 11.5083 26.1527 13.142 24.0219 13.142ZM23.4217 11.0526C24.1977 11.0526 24.7145 10.5143 24.7145 9.70773C24.7145 8.90117 24.1969 8.36291 23.4217 8.36291H21.4255V11.0526H23.4217Z" fill="#FF6D00"/>
</svg>
