<svg width="25" height="24" viewBox="0 0 25 24" fill="none" xmlns="http://www.w3.org/2000/svg">
<path d="M19.0534 14.7599C19.4034 13.9099 19.5934 12.9999 19.5934 11.9999C19.5934 11.2799 19.4834 10.5899 19.2934 9.94995C18.6434 10.0999 17.9634 10.1799 17.2534 10.1799C15.7993 10.1815 14.3663 9.83347 13.0749 9.16517C11.7836 8.49687 10.6718 7.5279 9.83337 6.33995C8.93733 8.51069 7.24509 10.2566 5.10337 11.2199C5.06337 11.4699 5.06337 11.7399 5.06337 11.9999C5.06337 12.9547 5.25142 13.9 5.61677 14.7821C5.98212 15.6641 6.51763 16.4655 7.19271 17.1406C8.5561 18.504 10.4053 19.2699 12.3334 19.2699C13.3834 19.2699 14.3934 19.0399 15.3034 18.6299C15.8734 19.7199 16.1334 20.2599 16.1134 20.2599C14.4734 20.8099 13.2034 21.0799 12.3334 21.0799C9.91337 21.0799 7.60337 20.1299 5.90337 18.4199C4.86842 17.3899 4.09964 16.1234 3.66337 14.7299H2.33337V10.1799H3.42337C3.75362 8.57246 4.51287 7.08436 5.62056 5.87354C6.72826 4.66272 8.14308 3.77435 9.7149 3.3027C11.2867 2.83106 12.9569 2.79372 14.5482 3.19465C16.1396 3.59559 17.5927 4.41984 18.7534 5.57995C20.0132 6.83553 20.8727 8.43623 21.2234 10.1799H22.3334V14.7299H22.2734L18.7134 17.9999L13.4134 17.3999V15.7299H18.2434L19.0534 14.7599ZM9.60337 11.7699C9.90337 11.7699 10.1934 11.8899 10.4034 12.1099C10.6144 12.3227 10.7328 12.6103 10.7328 12.9099C10.7328 13.2096 10.6144 13.4972 10.4034 13.7099C10.1934 13.9199 9.90337 14.0399 9.60337 14.0399C8.97337 14.0399 8.46337 13.5399 8.46337 12.9099C8.46337 12.2799 8.97337 11.7699 9.60337 11.7699ZM15.0534 11.7699C15.6834 11.7699 16.1834 12.2799 16.1834 12.9099C16.1834 13.5399 15.6834 14.0399 15.0534 14.0399C14.4234 14.0399 13.9134 13.5399 13.9134 12.9099C13.9134 12.6076 14.0335 12.3176 14.2473 12.1038C14.4611 11.8901 14.751 11.7699 15.0534 11.7699Z" fill="#FF6D00"/>
</svg>
